G04 (created by PCBNEW (22-Jun-2014 BZR 4027)-stable) date Fri 07 Jul 2017 01:08:53 AM CDT*
%MOIN*%
G04 Gerber Fmt 3.4, Leading zero omitted, Abs format*
%FSLAX34Y34*%
G01*
G70*
G90*
G04 APERTURE LIST*
%ADD10C,0.00590551*%
%ADD11R,0.06X0.06*%
%ADD12C,0.06*%
%ADD13C,0.054*%
%ADD14C,0.035*%
%ADD15C,0.01*%
G04 APERTURE END LIST*
G54D10*
G54D11*
X67500Y-26250D03*
G54D12*
X67500Y-27250D03*
X66500Y-26250D03*
X66500Y-27250D03*
X65500Y-26250D03*
X65500Y-27250D03*
X64500Y-26250D03*
X64500Y-27250D03*
X63500Y-26250D03*
X63500Y-27250D03*
G54D11*
X55000Y-26250D03*
G54D12*
X55000Y-27250D03*
X54000Y-26250D03*
X54000Y-27250D03*
X53000Y-26250D03*
X53000Y-27250D03*
X52000Y-26250D03*
X52000Y-27250D03*
X51000Y-26250D03*
X51000Y-27250D03*
G54D13*
X59675Y-22095D03*
X60525Y-22095D03*
X57975Y-22095D03*
X58825Y-22095D03*
X59675Y-20405D03*
X58825Y-20405D03*
X57975Y-20405D03*
X60525Y-20405D03*
X57125Y-22095D03*
X56275Y-22095D03*
X55425Y-22095D03*
X54575Y-22095D03*
X57125Y-20405D03*
X56275Y-20405D03*
X55425Y-20405D03*
X54575Y-20405D03*
X61375Y-22095D03*
X62225Y-22095D03*
X63075Y-22095D03*
X63925Y-22095D03*
X61375Y-20405D03*
X62225Y-20405D03*
X63075Y-20405D03*
X63925Y-20405D03*
X58825Y-31405D03*
X57975Y-31405D03*
X60525Y-31405D03*
X59675Y-31405D03*
X58825Y-33095D03*
X59675Y-33095D03*
X60525Y-33095D03*
X57975Y-33095D03*
X61375Y-31405D03*
X62225Y-31405D03*
X63075Y-31405D03*
X63925Y-31405D03*
X61375Y-33095D03*
X62225Y-33095D03*
X63075Y-33095D03*
X63925Y-33095D03*
X57125Y-31405D03*
X56275Y-31405D03*
X55425Y-31405D03*
X54575Y-31405D03*
X57125Y-33095D03*
X56275Y-33095D03*
X55425Y-33095D03*
X54575Y-33095D03*
G54D14*
X57500Y-24750D03*
X55750Y-24750D03*
X56750Y-28000D03*
X55750Y-28000D03*
X65000Y-28250D03*
X68000Y-28250D03*
X66500Y-31250D03*
X65000Y-31250D03*
X64000Y-24500D03*
X66000Y-24500D03*
X65000Y-30500D03*
X67500Y-30500D03*
X66000Y-22750D03*
X63500Y-22750D03*
X64000Y-25250D03*
X66000Y-25250D03*
X66500Y-30000D03*
X68000Y-30000D03*
X62250Y-33750D03*
X60500Y-32100D03*
X59650Y-32150D03*
X55750Y-25500D03*
X59250Y-25500D03*
X58400Y-27200D03*
X55750Y-27250D03*
G54D15*
X55750Y-24750D02*
X57500Y-24750D01*
X55750Y-28000D02*
X56750Y-28000D01*
X68000Y-28250D02*
X65000Y-28250D01*
X65000Y-31250D02*
X66500Y-31250D01*
X66000Y-24500D02*
X64000Y-24500D01*
X67500Y-30500D02*
X65000Y-30500D01*
X63500Y-22750D02*
X66000Y-22750D01*
X66000Y-25250D02*
X64000Y-25250D01*
X61375Y-31405D02*
X61375Y-32225D01*
X68000Y-30000D02*
X66500Y-30000D01*
X62000Y-33750D02*
X62250Y-33750D01*
X61800Y-33550D02*
X62000Y-33750D01*
X61800Y-32650D02*
X61800Y-33550D01*
X61375Y-32225D02*
X61800Y-32650D01*
X59700Y-32100D02*
X60500Y-32100D01*
X59650Y-32150D02*
X59700Y-32100D01*
X55750Y-25500D02*
X59250Y-25500D01*
X55800Y-27200D02*
X58400Y-27200D01*
X55750Y-27250D02*
X55800Y-27200D01*
G54D10*
G36*
X68450Y-35950D02*
X64445Y-35950D01*
X64445Y-32992D01*
X64366Y-32800D01*
X64219Y-32654D01*
X64028Y-32575D01*
X63822Y-32574D01*
X63630Y-32653D01*
X63499Y-32784D01*
X63369Y-32654D01*
X63178Y-32575D01*
X62972Y-32574D01*
X62780Y-32653D01*
X62649Y-32784D01*
X62519Y-32654D01*
X62328Y-32575D01*
X62122Y-32574D01*
X62087Y-32589D01*
X62077Y-32535D01*
X62012Y-32437D01*
X62012Y-32437D01*
X61675Y-32100D01*
X61675Y-31840D01*
X61800Y-31715D01*
X61930Y-31845D01*
X62121Y-31924D01*
X62327Y-31925D01*
X62519Y-31846D01*
X62650Y-31715D01*
X62780Y-31845D01*
X62971Y-31924D01*
X63177Y-31925D01*
X63369Y-31846D01*
X63500Y-31715D01*
X63630Y-31845D01*
X63821Y-31924D01*
X64027Y-31925D01*
X64219Y-31846D01*
X64365Y-31699D01*
X64444Y-31508D01*
X64445Y-31302D01*
X64366Y-31110D01*
X64219Y-30964D01*
X64028Y-30885D01*
X63822Y-30884D01*
X63815Y-30887D01*
X63815Y-27635D01*
X63500Y-27320D01*
X63429Y-27391D01*
X63429Y-27250D01*
X63114Y-26934D01*
X63018Y-26962D01*
X62945Y-27168D01*
X62956Y-27386D01*
X63018Y-27537D01*
X63114Y-27565D01*
X63429Y-27250D01*
X63429Y-27391D01*
X63184Y-27635D01*
X63212Y-27731D01*
X63418Y-27804D01*
X63636Y-27793D01*
X63787Y-27731D01*
X63815Y-27635D01*
X63815Y-30887D01*
X63630Y-30963D01*
X63499Y-31094D01*
X63369Y-30964D01*
X63178Y-30885D01*
X62972Y-30884D01*
X62780Y-30963D01*
X62649Y-31094D01*
X62519Y-30964D01*
X62328Y-30885D01*
X62122Y-30884D01*
X61930Y-30963D01*
X61799Y-31094D01*
X61669Y-30964D01*
X61478Y-30885D01*
X61272Y-30884D01*
X61080Y-30963D01*
X60949Y-31094D01*
X60819Y-30964D01*
X60628Y-30885D01*
X60422Y-30884D01*
X60230Y-30963D01*
X60099Y-31094D01*
X59969Y-30964D01*
X59778Y-30885D01*
X59675Y-30884D01*
X59675Y-25415D01*
X59610Y-25259D01*
X59491Y-25139D01*
X59334Y-25075D01*
X59165Y-25074D01*
X59009Y-25139D01*
X58948Y-25200D01*
X56051Y-25200D01*
X55991Y-25139D01*
X55955Y-25125D01*
X55990Y-25110D01*
X56051Y-25050D01*
X57198Y-25050D01*
X57258Y-25110D01*
X57415Y-25174D01*
X57584Y-25175D01*
X57740Y-25110D01*
X57860Y-24991D01*
X57924Y-24834D01*
X57925Y-24665D01*
X57860Y-24509D01*
X57741Y-24389D01*
X57584Y-24325D01*
X57415Y-24324D01*
X57259Y-24389D01*
X57198Y-24450D01*
X56051Y-24450D01*
X55991Y-24389D01*
X55834Y-24325D01*
X55665Y-24324D01*
X55509Y-24389D01*
X55389Y-24508D01*
X55325Y-24665D01*
X55324Y-24834D01*
X55389Y-24990D01*
X55508Y-25110D01*
X55544Y-25124D01*
X55509Y-25139D01*
X55389Y-25258D01*
X55325Y-25415D01*
X55324Y-25584D01*
X55377Y-25711D01*
X55349Y-25700D01*
X55250Y-25699D01*
X54868Y-25699D01*
X54868Y-22459D01*
X54575Y-22165D01*
X54504Y-22236D01*
X54504Y-22095D01*
X54210Y-21801D01*
X54118Y-21825D01*
X54050Y-22020D01*
X54061Y-22226D01*
X54118Y-22364D01*
X54210Y-22388D01*
X54504Y-22095D01*
X54504Y-22236D01*
X54281Y-22459D01*
X54305Y-22551D01*
X54500Y-22619D01*
X54706Y-22608D01*
X54844Y-22551D01*
X54868Y-22459D01*
X54868Y-25699D01*
X54650Y-25699D01*
X54558Y-25737D01*
X54488Y-25808D01*
X54450Y-25900D01*
X54450Y-25922D01*
X54311Y-25784D01*
X54109Y-25700D01*
X53891Y-25699D01*
X53688Y-25783D01*
X53534Y-25938D01*
X53500Y-26019D01*
X53466Y-25938D01*
X53311Y-25784D01*
X53109Y-25700D01*
X52891Y-25699D01*
X52688Y-25783D01*
X52534Y-25938D01*
X52500Y-26019D01*
X52466Y-25938D01*
X52311Y-25784D01*
X52109Y-25700D01*
X51891Y-25699D01*
X51688Y-25783D01*
X51534Y-25938D01*
X51502Y-26013D01*
X51481Y-25962D01*
X51385Y-25934D01*
X51315Y-26005D01*
X51315Y-25864D01*
X51287Y-25768D01*
X51081Y-25695D01*
X50863Y-25706D01*
X50712Y-25768D01*
X50684Y-25864D01*
X51000Y-26179D01*
X51315Y-25864D01*
X51315Y-26005D01*
X51070Y-26250D01*
X51385Y-26565D01*
X51481Y-26537D01*
X51500Y-26482D01*
X51533Y-26561D01*
X51688Y-26715D01*
X51769Y-26749D01*
X51688Y-26783D01*
X51534Y-26938D01*
X51502Y-27013D01*
X51481Y-26962D01*
X51385Y-26934D01*
X51315Y-27005D01*
X51315Y-26864D01*
X51287Y-26768D01*
X51239Y-26751D01*
X51287Y-26731D01*
X51315Y-26635D01*
X51000Y-26320D01*
X50929Y-26391D01*
X50929Y-26250D01*
X50614Y-25934D01*
X50518Y-25962D01*
X50445Y-26168D01*
X50456Y-26386D01*
X50518Y-26537D01*
X50614Y-26565D01*
X50929Y-26250D01*
X50929Y-26391D01*
X50684Y-26635D01*
X50712Y-26731D01*
X50760Y-26748D01*
X50712Y-26768D01*
X50684Y-26864D01*
X51000Y-27179D01*
X51315Y-26864D01*
X51315Y-27005D01*
X51070Y-27250D01*
X51385Y-27565D01*
X51481Y-27537D01*
X51500Y-27482D01*
X51533Y-27561D01*
X51688Y-27715D01*
X51890Y-27799D01*
X52108Y-27800D01*
X52311Y-27716D01*
X52465Y-27561D01*
X52499Y-27480D01*
X52533Y-27561D01*
X52688Y-27715D01*
X52890Y-27799D01*
X53108Y-27800D01*
X53311Y-27716D01*
X53465Y-27561D01*
X53499Y-27480D01*
X53533Y-27561D01*
X53688Y-27715D01*
X53890Y-27799D01*
X54108Y-27800D01*
X54311Y-27716D01*
X54465Y-27561D01*
X54499Y-27480D01*
X54533Y-27561D01*
X54688Y-27715D01*
X54890Y-27799D01*
X55108Y-27800D01*
X55311Y-27716D01*
X55463Y-27564D01*
X55508Y-27610D01*
X55544Y-27624D01*
X55509Y-27639D01*
X55389Y-27758D01*
X55325Y-27915D01*
X55324Y-28084D01*
X55389Y-28240D01*
X55508Y-28360D01*
X55665Y-28424D01*
X55834Y-28425D01*
X55990Y-28360D01*
X56051Y-28300D01*
X56448Y-28300D01*
X56508Y-28360D01*
X56665Y-28424D01*
X56834Y-28425D01*
X56990Y-28360D01*
X57110Y-28241D01*
X57174Y-28084D01*
X57175Y-27915D01*
X57110Y-27759D01*
X56991Y-27639D01*
X56834Y-27575D01*
X56665Y-27574D01*
X56509Y-27639D01*
X56448Y-27700D01*
X56051Y-27700D01*
X55991Y-27639D01*
X55955Y-27625D01*
X55990Y-27610D01*
X56101Y-27500D01*
X58098Y-27500D01*
X58158Y-27560D01*
X58315Y-27624D01*
X58484Y-27625D01*
X58640Y-27560D01*
X58760Y-27441D01*
X58824Y-27284D01*
X58825Y-27115D01*
X58760Y-26959D01*
X58641Y-26839D01*
X58484Y-26775D01*
X58315Y-26774D01*
X58159Y-26839D01*
X58098Y-26900D01*
X56001Y-26900D01*
X55991Y-26889D01*
X55834Y-26825D01*
X55665Y-26824D01*
X55509Y-26889D01*
X55463Y-26935D01*
X55327Y-26800D01*
X55349Y-26800D01*
X55441Y-26762D01*
X55511Y-26691D01*
X55549Y-26599D01*
X55550Y-26500D01*
X55550Y-25900D01*
X55538Y-25872D01*
X55665Y-25924D01*
X55834Y-25925D01*
X55990Y-25860D01*
X56051Y-25800D01*
X58948Y-25800D01*
X59008Y-25860D01*
X59165Y-25924D01*
X59334Y-25925D01*
X59490Y-25860D01*
X59610Y-25741D01*
X59674Y-25584D01*
X59675Y-25415D01*
X59675Y-30884D01*
X59572Y-30884D01*
X59380Y-30963D01*
X59249Y-31094D01*
X59119Y-30964D01*
X58928Y-30885D01*
X58722Y-30884D01*
X58530Y-30963D01*
X58399Y-31094D01*
X58269Y-30964D01*
X58078Y-30885D01*
X57872Y-30884D01*
X57680Y-30963D01*
X57549Y-31094D01*
X57419Y-30964D01*
X57228Y-30885D01*
X57022Y-30884D01*
X56830Y-30963D01*
X56699Y-31094D01*
X56569Y-30964D01*
X56378Y-30885D01*
X56172Y-30884D01*
X55980Y-30963D01*
X55849Y-31094D01*
X55719Y-30964D01*
X55528Y-30885D01*
X55322Y-30884D01*
X55130Y-30963D01*
X54984Y-31110D01*
X54979Y-31121D01*
X54939Y-31111D01*
X54868Y-31182D01*
X54868Y-31040D01*
X54844Y-30948D01*
X54649Y-30880D01*
X54443Y-30891D01*
X54305Y-30948D01*
X54281Y-31040D01*
X54575Y-31334D01*
X54868Y-31040D01*
X54868Y-31182D01*
X54645Y-31405D01*
X54939Y-31698D01*
X54979Y-31688D01*
X54983Y-31699D01*
X55130Y-31845D01*
X55321Y-31924D01*
X55527Y-31925D01*
X55719Y-31846D01*
X55850Y-31715D01*
X55980Y-31845D01*
X56171Y-31924D01*
X56377Y-31925D01*
X56569Y-31846D01*
X56700Y-31715D01*
X56830Y-31845D01*
X57021Y-31924D01*
X57227Y-31925D01*
X57419Y-31846D01*
X57550Y-31715D01*
X57680Y-31845D01*
X57871Y-31924D01*
X58077Y-31925D01*
X58269Y-31846D01*
X58400Y-31715D01*
X58530Y-31845D01*
X58721Y-31924D01*
X58927Y-31925D01*
X59119Y-31846D01*
X59250Y-31715D01*
X59366Y-31832D01*
X59289Y-31908D01*
X59225Y-32065D01*
X59224Y-32234D01*
X59289Y-32390D01*
X59408Y-32510D01*
X59565Y-32574D01*
X59660Y-32575D01*
X59543Y-32581D01*
X59405Y-32638D01*
X59381Y-32730D01*
X59675Y-33024D01*
X59968Y-32730D01*
X59944Y-32638D01*
X59749Y-32570D01*
X59745Y-32570D01*
X59890Y-32510D01*
X60001Y-32400D01*
X60198Y-32400D01*
X60258Y-32460D01*
X60415Y-32524D01*
X60584Y-32525D01*
X60740Y-32460D01*
X60860Y-32341D01*
X60924Y-32184D01*
X60925Y-32015D01*
X60860Y-31859D01*
X60833Y-31832D01*
X60950Y-31715D01*
X61075Y-31840D01*
X61075Y-32225D01*
X61097Y-32339D01*
X61162Y-32437D01*
X61300Y-32574D01*
X61272Y-32574D01*
X61080Y-32653D01*
X60949Y-32784D01*
X60819Y-32654D01*
X60628Y-32575D01*
X60422Y-32574D01*
X60230Y-32653D01*
X60084Y-32800D01*
X60079Y-32811D01*
X60039Y-32801D01*
X59745Y-33095D01*
X60039Y-33388D01*
X60079Y-33378D01*
X60083Y-33389D01*
X60230Y-33535D01*
X60421Y-33614D01*
X60627Y-33615D01*
X60819Y-33536D01*
X60950Y-33405D01*
X61080Y-33535D01*
X61271Y-33614D01*
X61477Y-33615D01*
X61510Y-33601D01*
X61522Y-33664D01*
X61587Y-33762D01*
X61787Y-33962D01*
X61787Y-33962D01*
X61885Y-34027D01*
X61936Y-34037D01*
X62008Y-34110D01*
X62165Y-34174D01*
X62334Y-34175D01*
X62490Y-34110D01*
X62610Y-33991D01*
X62674Y-33834D01*
X62675Y-33665D01*
X62610Y-33509D01*
X62578Y-33477D01*
X62650Y-33405D01*
X62780Y-33535D01*
X62971Y-33614D01*
X63177Y-33615D01*
X63369Y-33536D01*
X63500Y-33405D01*
X63630Y-33535D01*
X63821Y-33614D01*
X64027Y-33615D01*
X64219Y-33536D01*
X64365Y-33389D01*
X64444Y-33198D01*
X64445Y-32992D01*
X64445Y-35950D01*
X59968Y-35950D01*
X59968Y-33459D01*
X59675Y-33165D01*
X59604Y-33236D01*
X59604Y-33095D01*
X59310Y-32801D01*
X59250Y-32817D01*
X59189Y-32801D01*
X59118Y-32872D01*
X59118Y-32730D01*
X59094Y-32638D01*
X58899Y-32570D01*
X58693Y-32581D01*
X58555Y-32638D01*
X58531Y-32730D01*
X58825Y-33024D01*
X59118Y-32730D01*
X59118Y-32872D01*
X58895Y-33095D01*
X59189Y-33388D01*
X59250Y-33372D01*
X59310Y-33388D01*
X59604Y-33095D01*
X59604Y-33236D01*
X59381Y-33459D01*
X59405Y-33551D01*
X59600Y-33619D01*
X59806Y-33608D01*
X59944Y-33551D01*
X59968Y-33459D01*
X59968Y-35950D01*
X59118Y-35950D01*
X59118Y-33459D01*
X58825Y-33165D01*
X58754Y-33236D01*
X58754Y-33095D01*
X58460Y-32801D01*
X58400Y-32817D01*
X58339Y-32801D01*
X58268Y-32872D01*
X58268Y-32730D01*
X58244Y-32638D01*
X58049Y-32570D01*
X57843Y-32581D01*
X57705Y-32638D01*
X57681Y-32730D01*
X57975Y-33024D01*
X58268Y-32730D01*
X58268Y-32872D01*
X58045Y-33095D01*
X58339Y-33388D01*
X58400Y-33372D01*
X58460Y-33388D01*
X58754Y-33095D01*
X58754Y-33236D01*
X58531Y-33459D01*
X58555Y-33551D01*
X58750Y-33619D01*
X58956Y-33608D01*
X59094Y-33551D01*
X59118Y-33459D01*
X59118Y-35950D01*
X58268Y-35950D01*
X58268Y-33459D01*
X57975Y-33165D01*
X57904Y-33236D01*
X57904Y-33095D01*
X57610Y-32801D01*
X57550Y-32817D01*
X57489Y-32801D01*
X57418Y-32872D01*
X57418Y-32730D01*
X57394Y-32638D01*
X57199Y-32570D01*
X56993Y-32581D01*
X56855Y-32638D01*
X56831Y-32730D01*
X57125Y-33024D01*
X57418Y-32730D01*
X57418Y-32872D01*
X57195Y-33095D01*
X57489Y-33388D01*
X57550Y-33372D01*
X57610Y-33388D01*
X57904Y-33095D01*
X57904Y-33236D01*
X57681Y-33459D01*
X57705Y-33551D01*
X57900Y-33619D01*
X58106Y-33608D01*
X58244Y-33551D01*
X58268Y-33459D01*
X58268Y-35950D01*
X57418Y-35950D01*
X57418Y-33459D01*
X57125Y-33165D01*
X57054Y-33236D01*
X57054Y-33095D01*
X56760Y-32801D01*
X56700Y-32817D01*
X56639Y-32801D01*
X56568Y-32872D01*
X56568Y-32730D01*
X56544Y-32638D01*
X56349Y-32570D01*
X56143Y-32581D01*
X56005Y-32638D01*
X55981Y-32730D01*
X56275Y-33024D01*
X56568Y-32730D01*
X56568Y-32872D01*
X56345Y-33095D01*
X56639Y-33388D01*
X56700Y-33372D01*
X56760Y-33388D01*
X57054Y-33095D01*
X57054Y-33236D01*
X56831Y-33459D01*
X56855Y-33551D01*
X57050Y-33619D01*
X57256Y-33608D01*
X57394Y-33551D01*
X57418Y-33459D01*
X57418Y-35950D01*
X56568Y-35950D01*
X56568Y-33459D01*
X56275Y-33165D01*
X56204Y-33236D01*
X56204Y-33095D01*
X55910Y-32801D01*
X55850Y-32817D01*
X55789Y-32801D01*
X55718Y-32872D01*
X55718Y-32730D01*
X55694Y-32638D01*
X55499Y-32570D01*
X55293Y-32581D01*
X55155Y-32638D01*
X55131Y-32730D01*
X55425Y-33024D01*
X55718Y-32730D01*
X55718Y-32872D01*
X55495Y-33095D01*
X55789Y-33388D01*
X55850Y-33372D01*
X55910Y-33388D01*
X56204Y-33095D01*
X56204Y-33236D01*
X55981Y-33459D01*
X56005Y-33551D01*
X56200Y-33619D01*
X56406Y-33608D01*
X56544Y-33551D01*
X56568Y-33459D01*
X56568Y-35950D01*
X55718Y-35950D01*
X55718Y-33459D01*
X55425Y-33165D01*
X55354Y-33236D01*
X55354Y-33095D01*
X55060Y-32801D01*
X55000Y-32817D01*
X54939Y-32801D01*
X54868Y-32872D01*
X54868Y-32730D01*
X54868Y-31769D01*
X54575Y-31475D01*
X54504Y-31546D01*
X54504Y-31405D01*
X54210Y-31111D01*
X54118Y-31135D01*
X54050Y-31330D01*
X54061Y-31536D01*
X54118Y-31674D01*
X54210Y-31698D01*
X54504Y-31405D01*
X54504Y-31546D01*
X54281Y-31769D01*
X54305Y-31861D01*
X54500Y-31929D01*
X54706Y-31918D01*
X54844Y-31861D01*
X54868Y-31769D01*
X54868Y-32730D01*
X54844Y-32638D01*
X54649Y-32570D01*
X54443Y-32581D01*
X54305Y-32638D01*
X54281Y-32730D01*
X54575Y-33024D01*
X54868Y-32730D01*
X54868Y-32872D01*
X54645Y-33095D01*
X54939Y-33388D01*
X55000Y-33372D01*
X55060Y-33388D01*
X55354Y-33095D01*
X55354Y-33236D01*
X55131Y-33459D01*
X55155Y-33551D01*
X55350Y-33619D01*
X55556Y-33608D01*
X55694Y-33551D01*
X55718Y-33459D01*
X55718Y-35950D01*
X54868Y-35950D01*
X54868Y-33459D01*
X54575Y-33165D01*
X54504Y-33236D01*
X54504Y-33095D01*
X54210Y-32801D01*
X54118Y-32825D01*
X54050Y-33020D01*
X54061Y-33226D01*
X54118Y-33364D01*
X54210Y-33388D01*
X54504Y-33095D01*
X54504Y-33236D01*
X54281Y-33459D01*
X54305Y-33551D01*
X54500Y-33619D01*
X54706Y-33608D01*
X54844Y-33551D01*
X54868Y-33459D01*
X54868Y-35950D01*
X50050Y-35950D01*
X50050Y-34050D01*
X52050Y-34050D01*
X52050Y-30450D01*
X51315Y-30450D01*
X51315Y-27635D01*
X51000Y-27320D01*
X50929Y-27391D01*
X50929Y-27250D01*
X50614Y-26934D01*
X50518Y-26962D01*
X50445Y-27168D01*
X50456Y-27386D01*
X50518Y-27537D01*
X50614Y-27565D01*
X50929Y-27250D01*
X50929Y-27391D01*
X50684Y-27635D01*
X50712Y-27731D01*
X50918Y-27804D01*
X51136Y-27793D01*
X51287Y-27731D01*
X51315Y-27635D01*
X51315Y-30450D01*
X50050Y-30450D01*
X50050Y-23050D01*
X52050Y-23050D01*
X52050Y-19450D01*
X50050Y-19450D01*
X50050Y-17550D01*
X68450Y-17550D01*
X68450Y-19450D01*
X66450Y-19450D01*
X66450Y-23050D01*
X68450Y-23050D01*
X68450Y-30450D01*
X67925Y-30450D01*
X67925Y-30424D01*
X68084Y-30425D01*
X68240Y-30360D01*
X68360Y-30241D01*
X68424Y-30084D01*
X68425Y-29915D01*
X68425Y-28165D01*
X68360Y-28009D01*
X68241Y-27889D01*
X68084Y-27825D01*
X68050Y-27825D01*
X68050Y-27141D01*
X67966Y-26938D01*
X67827Y-26800D01*
X67849Y-26800D01*
X67941Y-26762D01*
X68011Y-26691D01*
X68049Y-26599D01*
X68050Y-26500D01*
X68050Y-25900D01*
X68012Y-25808D01*
X67941Y-25738D01*
X67849Y-25700D01*
X67750Y-25699D01*
X67150Y-25699D01*
X67058Y-25737D01*
X66988Y-25808D01*
X66950Y-25900D01*
X66950Y-25922D01*
X66811Y-25784D01*
X66609Y-25700D01*
X66425Y-25699D01*
X66425Y-25165D01*
X66360Y-25009D01*
X66241Y-24889D01*
X66205Y-24875D01*
X66240Y-24860D01*
X66360Y-24741D01*
X66424Y-24584D01*
X66425Y-24415D01*
X66425Y-22665D01*
X66360Y-22509D01*
X66241Y-22389D01*
X66084Y-22325D01*
X65915Y-22324D01*
X65759Y-22389D01*
X65698Y-22450D01*
X64305Y-22450D01*
X64365Y-22389D01*
X64444Y-22198D01*
X64445Y-21992D01*
X64445Y-20302D01*
X64366Y-20110D01*
X64219Y-19964D01*
X64028Y-19885D01*
X63822Y-19884D01*
X63630Y-19963D01*
X63499Y-20094D01*
X63369Y-19964D01*
X63178Y-19885D01*
X62972Y-19884D01*
X62780Y-19963D01*
X62649Y-20094D01*
X62519Y-19964D01*
X62328Y-19885D01*
X62122Y-19884D01*
X61930Y-19963D01*
X61799Y-20094D01*
X61669Y-19964D01*
X61478Y-19885D01*
X61272Y-19884D01*
X61080Y-19963D01*
X60949Y-20094D01*
X60819Y-19964D01*
X60628Y-19885D01*
X60422Y-19884D01*
X60230Y-19963D01*
X60084Y-20110D01*
X60079Y-20121D01*
X60039Y-20111D01*
X59968Y-20182D01*
X59968Y-20040D01*
X59944Y-19948D01*
X59749Y-19880D01*
X59543Y-19891D01*
X59405Y-19948D01*
X59381Y-20040D01*
X59675Y-20334D01*
X59968Y-20040D01*
X59968Y-20182D01*
X59745Y-20405D01*
X60039Y-20698D01*
X60079Y-20688D01*
X60083Y-20699D01*
X60230Y-20845D01*
X60421Y-20924D01*
X60627Y-20925D01*
X60819Y-20846D01*
X60950Y-20715D01*
X61080Y-20845D01*
X61271Y-20924D01*
X61477Y-20925D01*
X61669Y-20846D01*
X61800Y-20715D01*
X61930Y-20845D01*
X62121Y-20924D01*
X62327Y-20925D01*
X62519Y-20846D01*
X62650Y-20715D01*
X62780Y-20845D01*
X62971Y-20924D01*
X63177Y-20925D01*
X63369Y-20846D01*
X63500Y-20715D01*
X63630Y-20845D01*
X63821Y-20924D01*
X64027Y-20925D01*
X64219Y-20846D01*
X64365Y-20699D01*
X64444Y-20508D01*
X64445Y-20302D01*
X64445Y-21992D01*
X64366Y-21800D01*
X64219Y-21654D01*
X64028Y-21575D01*
X63822Y-21574D01*
X63630Y-21653D01*
X63499Y-21784D01*
X63369Y-21654D01*
X63178Y-21575D01*
X62972Y-21574D01*
X62780Y-21653D01*
X62649Y-21784D01*
X62519Y-21654D01*
X62328Y-21575D01*
X62122Y-21574D01*
X61930Y-21653D01*
X61799Y-21784D01*
X61669Y-21654D01*
X61478Y-21575D01*
X61272Y-21574D01*
X61080Y-21653D01*
X60949Y-21784D01*
X60819Y-21654D01*
X60628Y-21575D01*
X60422Y-21574D01*
X60230Y-21653D01*
X60099Y-21784D01*
X59969Y-21654D01*
X59968Y-21653D01*
X59968Y-20769D01*
X59675Y-20475D01*
X59604Y-20546D01*
X59604Y-20405D01*
X59310Y-20111D01*
X59250Y-20127D01*
X59189Y-20111D01*
X59118Y-20182D01*
X59118Y-20040D01*
X59094Y-19948D01*
X58899Y-19880D01*
X58693Y-19891D01*
X58555Y-19948D01*
X58531Y-20040D01*
X58825Y-20334D01*
X59118Y-20040D01*
X59118Y-20182D01*
X58895Y-20405D01*
X59189Y-20698D01*
X59250Y-20682D01*
X59310Y-20698D01*
X59604Y-20405D01*
X59604Y-20546D01*
X59381Y-20769D01*
X59405Y-20861D01*
X59600Y-20929D01*
X59806Y-20918D01*
X59944Y-20861D01*
X59968Y-20769D01*
X59968Y-21653D01*
X59778Y-21575D01*
X59572Y-21574D01*
X59380Y-21653D01*
X59249Y-21784D01*
X59119Y-21654D01*
X59118Y-21653D01*
X59118Y-20769D01*
X58825Y-20475D01*
X58754Y-20546D01*
X58754Y-20405D01*
X58460Y-20111D01*
X58400Y-20127D01*
X58339Y-20111D01*
X58268Y-20182D01*
X58268Y-20040D01*
X58244Y-19948D01*
X58049Y-19880D01*
X57843Y-19891D01*
X57705Y-19948D01*
X57681Y-20040D01*
X57975Y-20334D01*
X58268Y-20040D01*
X58268Y-20182D01*
X58045Y-20405D01*
X58339Y-20698D01*
X58400Y-20682D01*
X58460Y-20698D01*
X58754Y-20405D01*
X58754Y-20546D01*
X58531Y-20769D01*
X58555Y-20861D01*
X58750Y-20929D01*
X58956Y-20918D01*
X59094Y-20861D01*
X59118Y-20769D01*
X59118Y-21653D01*
X58928Y-21575D01*
X58722Y-21574D01*
X58530Y-21653D01*
X58399Y-21784D01*
X58269Y-21654D01*
X58268Y-21653D01*
X58268Y-20769D01*
X57975Y-20475D01*
X57904Y-20546D01*
X57904Y-20405D01*
X57610Y-20111D01*
X57550Y-20127D01*
X57489Y-20111D01*
X57418Y-20182D01*
X57418Y-20040D01*
X57394Y-19948D01*
X57199Y-19880D01*
X56993Y-19891D01*
X56855Y-19948D01*
X56831Y-20040D01*
X57125Y-20334D01*
X57418Y-20040D01*
X57418Y-20182D01*
X57195Y-20405D01*
X57489Y-20698D01*
X57550Y-20682D01*
X57610Y-20698D01*
X57904Y-20405D01*
X57904Y-20546D01*
X57681Y-20769D01*
X57705Y-20861D01*
X57900Y-20929D01*
X58106Y-20918D01*
X58244Y-20861D01*
X58268Y-20769D01*
X58268Y-21653D01*
X58078Y-21575D01*
X57872Y-21574D01*
X57680Y-21653D01*
X57549Y-21784D01*
X57419Y-21654D01*
X57418Y-21653D01*
X57418Y-20769D01*
X57125Y-20475D01*
X57054Y-20546D01*
X57054Y-20405D01*
X56760Y-20111D01*
X56700Y-20127D01*
X56639Y-20111D01*
X56568Y-20182D01*
X56568Y-20040D01*
X56544Y-19948D01*
X56349Y-19880D01*
X56143Y-19891D01*
X56005Y-19948D01*
X55981Y-20040D01*
X56275Y-20334D01*
X56568Y-20040D01*
X56568Y-20182D01*
X56345Y-20405D01*
X56639Y-20698D01*
X56700Y-20682D01*
X56760Y-20698D01*
X57054Y-20405D01*
X57054Y-20546D01*
X56831Y-20769D01*
X56855Y-20861D01*
X57050Y-20929D01*
X57256Y-20918D01*
X57394Y-20861D01*
X57418Y-20769D01*
X57418Y-21653D01*
X57228Y-21575D01*
X57022Y-21574D01*
X56830Y-21653D01*
X56699Y-21784D01*
X56569Y-21654D01*
X56568Y-21653D01*
X56568Y-20769D01*
X56275Y-20475D01*
X56204Y-20546D01*
X56204Y-20405D01*
X55910Y-20111D01*
X55850Y-20127D01*
X55789Y-20111D01*
X55718Y-20182D01*
X55718Y-20040D01*
X55694Y-19948D01*
X55499Y-19880D01*
X55293Y-19891D01*
X55155Y-19948D01*
X55131Y-20040D01*
X55425Y-20334D01*
X55718Y-20040D01*
X55718Y-20182D01*
X55495Y-20405D01*
X55789Y-20698D01*
X55850Y-20682D01*
X55910Y-20698D01*
X56204Y-20405D01*
X56204Y-20546D01*
X55981Y-20769D01*
X56005Y-20861D01*
X56200Y-20929D01*
X56406Y-20918D01*
X56544Y-20861D01*
X56568Y-20769D01*
X56568Y-21653D01*
X56378Y-21575D01*
X56172Y-21574D01*
X55980Y-21653D01*
X55849Y-21784D01*
X55719Y-21654D01*
X55718Y-21653D01*
X55718Y-20769D01*
X55425Y-20475D01*
X55354Y-20546D01*
X55354Y-20405D01*
X55060Y-20111D01*
X55000Y-20127D01*
X54939Y-20111D01*
X54868Y-20182D01*
X54868Y-20040D01*
X54844Y-19948D01*
X54649Y-19880D01*
X54443Y-19891D01*
X54305Y-19948D01*
X54281Y-20040D01*
X54575Y-20334D01*
X54868Y-20040D01*
X54868Y-20182D01*
X54645Y-20405D01*
X54939Y-20698D01*
X55000Y-20682D01*
X55060Y-20698D01*
X55354Y-20405D01*
X55354Y-20546D01*
X55131Y-20769D01*
X55155Y-20861D01*
X55350Y-20929D01*
X55556Y-20918D01*
X55694Y-20861D01*
X55718Y-20769D01*
X55718Y-21653D01*
X55528Y-21575D01*
X55322Y-21574D01*
X55130Y-21653D01*
X54984Y-21800D01*
X54979Y-21811D01*
X54939Y-21801D01*
X54868Y-21872D01*
X54868Y-21730D01*
X54868Y-20769D01*
X54575Y-20475D01*
X54504Y-20546D01*
X54504Y-20405D01*
X54210Y-20111D01*
X54118Y-20135D01*
X54050Y-20330D01*
X54061Y-20536D01*
X54118Y-20674D01*
X54210Y-20698D01*
X54504Y-20405D01*
X54504Y-20546D01*
X54281Y-20769D01*
X54305Y-20861D01*
X54500Y-20929D01*
X54706Y-20918D01*
X54844Y-20861D01*
X54868Y-20769D01*
X54868Y-21730D01*
X54844Y-21638D01*
X54649Y-21570D01*
X54443Y-21581D01*
X54305Y-21638D01*
X54281Y-21730D01*
X54575Y-22024D01*
X54868Y-21730D01*
X54868Y-21872D01*
X54645Y-22095D01*
X54939Y-22388D01*
X54979Y-22378D01*
X54983Y-22389D01*
X55130Y-22535D01*
X55321Y-22614D01*
X55527Y-22615D01*
X55719Y-22536D01*
X55850Y-22405D01*
X55980Y-22535D01*
X56171Y-22614D01*
X56377Y-22615D01*
X56569Y-22536D01*
X56700Y-22405D01*
X56830Y-22535D01*
X57021Y-22614D01*
X57227Y-22615D01*
X57419Y-22536D01*
X57550Y-22405D01*
X57680Y-22535D01*
X57871Y-22614D01*
X58077Y-22615D01*
X58269Y-22536D01*
X58400Y-22405D01*
X58530Y-22535D01*
X58721Y-22614D01*
X58927Y-22615D01*
X59119Y-22536D01*
X59250Y-22405D01*
X59380Y-22535D01*
X59571Y-22614D01*
X59777Y-22615D01*
X59969Y-22536D01*
X60100Y-22405D01*
X60230Y-22535D01*
X60421Y-22614D01*
X60627Y-22615D01*
X60819Y-22536D01*
X60950Y-22405D01*
X61080Y-22535D01*
X61271Y-22614D01*
X61477Y-22615D01*
X61669Y-22536D01*
X61800Y-22405D01*
X61930Y-22535D01*
X62121Y-22614D01*
X62327Y-22615D01*
X62519Y-22536D01*
X62650Y-22405D01*
X62780Y-22535D01*
X62971Y-22614D01*
X63095Y-22615D01*
X63075Y-22665D01*
X63074Y-22834D01*
X63139Y-22990D01*
X63258Y-23110D01*
X63415Y-23174D01*
X63584Y-23175D01*
X63740Y-23110D01*
X63801Y-23050D01*
X65698Y-23050D01*
X65758Y-23110D01*
X65915Y-23174D01*
X66084Y-23175D01*
X66240Y-23110D01*
X66360Y-22991D01*
X66424Y-22834D01*
X66425Y-22665D01*
X66425Y-24415D01*
X66360Y-24259D01*
X66241Y-24139D01*
X66084Y-24075D01*
X65915Y-24074D01*
X65759Y-24139D01*
X65698Y-24200D01*
X64301Y-24200D01*
X64241Y-24139D01*
X64084Y-24075D01*
X63915Y-24074D01*
X63759Y-24139D01*
X63639Y-24258D01*
X63575Y-24415D01*
X63574Y-24584D01*
X63639Y-24740D01*
X63758Y-24860D01*
X63794Y-24874D01*
X63759Y-24889D01*
X63639Y-25008D01*
X63575Y-25165D01*
X63574Y-25334D01*
X63639Y-25490D01*
X63758Y-25610D01*
X63915Y-25674D01*
X64084Y-25675D01*
X64240Y-25610D01*
X64301Y-25550D01*
X65698Y-25550D01*
X65758Y-25610D01*
X65915Y-25674D01*
X66084Y-25675D01*
X66240Y-25610D01*
X66360Y-25491D01*
X66424Y-25334D01*
X66425Y-25165D01*
X66425Y-25699D01*
X66391Y-25699D01*
X66188Y-25783D01*
X66034Y-25938D01*
X66000Y-26019D01*
X65966Y-25938D01*
X65811Y-25784D01*
X65609Y-25700D01*
X65391Y-25699D01*
X65188Y-25783D01*
X65034Y-25938D01*
X65000Y-26019D01*
X64966Y-25938D01*
X64811Y-25784D01*
X64609Y-25700D01*
X64391Y-25699D01*
X64188Y-25783D01*
X64034Y-25938D01*
X64002Y-26013D01*
X63981Y-25962D01*
X63885Y-25934D01*
X63815Y-26005D01*
X63815Y-25864D01*
X63787Y-25768D01*
X63581Y-25695D01*
X63363Y-25706D01*
X63212Y-25768D01*
X63184Y-25864D01*
X63500Y-26179D01*
X63815Y-25864D01*
X63815Y-26005D01*
X63570Y-26250D01*
X63885Y-26565D01*
X63981Y-26537D01*
X64000Y-26482D01*
X64033Y-26561D01*
X64188Y-26715D01*
X64269Y-26749D01*
X64188Y-26783D01*
X64034Y-26938D01*
X64002Y-27013D01*
X63981Y-26962D01*
X63885Y-26934D01*
X63815Y-27005D01*
X63815Y-26864D01*
X63787Y-26768D01*
X63739Y-26751D01*
X63787Y-26731D01*
X63815Y-26635D01*
X63500Y-26320D01*
X63429Y-26391D01*
X63429Y-26250D01*
X63114Y-25934D01*
X63018Y-25962D01*
X62945Y-26168D01*
X62956Y-26386D01*
X63018Y-26537D01*
X63114Y-26565D01*
X63429Y-26250D01*
X63429Y-26391D01*
X63184Y-26635D01*
X63212Y-26731D01*
X63260Y-26748D01*
X63212Y-26768D01*
X63184Y-26864D01*
X63500Y-27179D01*
X63815Y-26864D01*
X63815Y-27005D01*
X63570Y-27250D01*
X63885Y-27565D01*
X63981Y-27537D01*
X64000Y-27482D01*
X64033Y-27561D01*
X64188Y-27715D01*
X64390Y-27799D01*
X64608Y-27800D01*
X64811Y-27716D01*
X64965Y-27561D01*
X64999Y-27480D01*
X65033Y-27561D01*
X65188Y-27715D01*
X65390Y-27799D01*
X65608Y-27800D01*
X65811Y-27716D01*
X65965Y-27561D01*
X65999Y-27480D01*
X66033Y-27561D01*
X66188Y-27715D01*
X66390Y-27799D01*
X66608Y-27800D01*
X66811Y-27716D01*
X66965Y-27561D01*
X66999Y-27480D01*
X67033Y-27561D01*
X67188Y-27715D01*
X67390Y-27799D01*
X67608Y-27800D01*
X67811Y-27716D01*
X67965Y-27561D01*
X68049Y-27359D01*
X68050Y-27141D01*
X68050Y-27825D01*
X67915Y-27824D01*
X67759Y-27889D01*
X67698Y-27950D01*
X65301Y-27950D01*
X65241Y-27889D01*
X65084Y-27825D01*
X64915Y-27824D01*
X64759Y-27889D01*
X64639Y-28008D01*
X64575Y-28165D01*
X64574Y-28334D01*
X64639Y-28490D01*
X64758Y-28610D01*
X64915Y-28674D01*
X65084Y-28675D01*
X65240Y-28610D01*
X65301Y-28550D01*
X67698Y-28550D01*
X67758Y-28610D01*
X67915Y-28674D01*
X68084Y-28675D01*
X68240Y-28610D01*
X68360Y-28491D01*
X68424Y-28334D01*
X68425Y-28165D01*
X68425Y-29915D01*
X68360Y-29759D01*
X68241Y-29639D01*
X68084Y-29575D01*
X67915Y-29574D01*
X67759Y-29639D01*
X67698Y-29700D01*
X66801Y-29700D01*
X66741Y-29639D01*
X66584Y-29575D01*
X66415Y-29574D01*
X66259Y-29639D01*
X66139Y-29758D01*
X66075Y-29915D01*
X66074Y-30084D01*
X66122Y-30200D01*
X65301Y-30200D01*
X65241Y-30139D01*
X65084Y-30075D01*
X64915Y-30074D01*
X64759Y-30139D01*
X64639Y-30258D01*
X64575Y-30415D01*
X64574Y-30584D01*
X64639Y-30740D01*
X64758Y-30860D01*
X64794Y-30874D01*
X64759Y-30889D01*
X64639Y-31008D01*
X64575Y-31165D01*
X64574Y-31334D01*
X64639Y-31490D01*
X64758Y-31610D01*
X64915Y-31674D01*
X65084Y-31675D01*
X65240Y-31610D01*
X65301Y-31550D01*
X66198Y-31550D01*
X66258Y-31610D01*
X66415Y-31674D01*
X66450Y-31674D01*
X66450Y-34050D01*
X68450Y-34050D01*
X68450Y-35950D01*
X68450Y-35950D01*
G37*
G54D15*
X68450Y-35950D02*
X64445Y-35950D01*
X64445Y-32992D01*
X64366Y-32800D01*
X64219Y-32654D01*
X64028Y-32575D01*
X63822Y-32574D01*
X63630Y-32653D01*
X63499Y-32784D01*
X63369Y-32654D01*
X63178Y-32575D01*
X62972Y-32574D01*
X62780Y-32653D01*
X62649Y-32784D01*
X62519Y-32654D01*
X62328Y-32575D01*
X62122Y-32574D01*
X62087Y-32589D01*
X62077Y-32535D01*
X62012Y-32437D01*
X62012Y-32437D01*
X61675Y-32100D01*
X61675Y-31840D01*
X61800Y-31715D01*
X61930Y-31845D01*
X62121Y-31924D01*
X62327Y-31925D01*
X62519Y-31846D01*
X62650Y-31715D01*
X62780Y-31845D01*
X62971Y-31924D01*
X63177Y-31925D01*
X63369Y-31846D01*
X63500Y-31715D01*
X63630Y-31845D01*
X63821Y-31924D01*
X64027Y-31925D01*
X64219Y-31846D01*
X64365Y-31699D01*
X64444Y-31508D01*
X64445Y-31302D01*
X64366Y-31110D01*
X64219Y-30964D01*
X64028Y-30885D01*
X63822Y-30884D01*
X63815Y-30887D01*
X63815Y-27635D01*
X63500Y-27320D01*
X63429Y-27391D01*
X63429Y-27250D01*
X63114Y-26934D01*
X63018Y-26962D01*
X62945Y-27168D01*
X62956Y-27386D01*
X63018Y-27537D01*
X63114Y-27565D01*
X63429Y-27250D01*
X63429Y-27391D01*
X63184Y-27635D01*
X63212Y-27731D01*
X63418Y-27804D01*
X63636Y-27793D01*
X63787Y-27731D01*
X63815Y-27635D01*
X63815Y-30887D01*
X63630Y-30963D01*
X63499Y-31094D01*
X63369Y-30964D01*
X63178Y-30885D01*
X62972Y-30884D01*
X62780Y-30963D01*
X62649Y-31094D01*
X62519Y-30964D01*
X62328Y-30885D01*
X62122Y-30884D01*
X61930Y-30963D01*
X61799Y-31094D01*
X61669Y-30964D01*
X61478Y-30885D01*
X61272Y-30884D01*
X61080Y-30963D01*
X60949Y-31094D01*
X60819Y-30964D01*
X60628Y-30885D01*
X60422Y-30884D01*
X60230Y-30963D01*
X60099Y-31094D01*
X59969Y-30964D01*
X59778Y-30885D01*
X59675Y-30884D01*
X59675Y-25415D01*
X59610Y-25259D01*
X59491Y-25139D01*
X59334Y-25075D01*
X59165Y-25074D01*
X59009Y-25139D01*
X58948Y-25200D01*
X56051Y-25200D01*
X55991Y-25139D01*
X55955Y-25125D01*
X55990Y-25110D01*
X56051Y-25050D01*
X57198Y-25050D01*
X57258Y-25110D01*
X57415Y-25174D01*
X57584Y-25175D01*
X57740Y-25110D01*
X57860Y-24991D01*
X57924Y-24834D01*
X57925Y-24665D01*
X57860Y-24509D01*
X57741Y-24389D01*
X57584Y-24325D01*
X57415Y-24324D01*
X57259Y-24389D01*
X57198Y-24450D01*
X56051Y-24450D01*
X55991Y-24389D01*
X55834Y-24325D01*
X55665Y-24324D01*
X55509Y-24389D01*
X55389Y-24508D01*
X55325Y-24665D01*
X55324Y-24834D01*
X55389Y-24990D01*
X55508Y-25110D01*
X55544Y-25124D01*
X55509Y-25139D01*
X55389Y-25258D01*
X55325Y-25415D01*
X55324Y-25584D01*
X55377Y-25711D01*
X55349Y-25700D01*
X55250Y-25699D01*
X54868Y-25699D01*
X54868Y-22459D01*
X54575Y-22165D01*
X54504Y-22236D01*
X54504Y-22095D01*
X54210Y-21801D01*
X54118Y-21825D01*
X54050Y-22020D01*
X54061Y-22226D01*
X54118Y-22364D01*
X54210Y-22388D01*
X54504Y-22095D01*
X54504Y-22236D01*
X54281Y-22459D01*
X54305Y-22551D01*
X54500Y-22619D01*
X54706Y-22608D01*
X54844Y-22551D01*
X54868Y-22459D01*
X54868Y-25699D01*
X54650Y-25699D01*
X54558Y-25737D01*
X54488Y-25808D01*
X54450Y-25900D01*
X54450Y-25922D01*
X54311Y-25784D01*
X54109Y-25700D01*
X53891Y-25699D01*
X53688Y-25783D01*
X53534Y-25938D01*
X53500Y-26019D01*
X53466Y-25938D01*
X53311Y-25784D01*
X53109Y-25700D01*
X52891Y-25699D01*
X52688Y-25783D01*
X52534Y-25938D01*
X52500Y-26019D01*
X52466Y-25938D01*
X52311Y-25784D01*
X52109Y-25700D01*
X51891Y-25699D01*
X51688Y-25783D01*
X51534Y-25938D01*
X51502Y-26013D01*
X51481Y-25962D01*
X51385Y-25934D01*
X51315Y-26005D01*
X51315Y-25864D01*
X51287Y-25768D01*
X51081Y-25695D01*
X50863Y-25706D01*
X50712Y-25768D01*
X50684Y-25864D01*
X51000Y-26179D01*
X51315Y-25864D01*
X51315Y-26005D01*
X51070Y-26250D01*
X51385Y-26565D01*
X51481Y-26537D01*
X51500Y-26482D01*
X51533Y-26561D01*
X51688Y-26715D01*
X51769Y-26749D01*
X51688Y-26783D01*
X51534Y-26938D01*
X51502Y-27013D01*
X51481Y-26962D01*
X51385Y-26934D01*
X51315Y-27005D01*
X51315Y-26864D01*
X51287Y-26768D01*
X51239Y-26751D01*
X51287Y-26731D01*
X51315Y-26635D01*
X51000Y-26320D01*
X50929Y-26391D01*
X50929Y-26250D01*
X50614Y-25934D01*
X50518Y-25962D01*
X50445Y-26168D01*
X50456Y-26386D01*
X50518Y-26537D01*
X50614Y-26565D01*
X50929Y-26250D01*
X50929Y-26391D01*
X50684Y-26635D01*
X50712Y-26731D01*
X50760Y-26748D01*
X50712Y-26768D01*
X50684Y-26864D01*
X51000Y-27179D01*
X51315Y-26864D01*
X51315Y-27005D01*
X51070Y-27250D01*
X51385Y-27565D01*
X51481Y-27537D01*
X51500Y-27482D01*
X51533Y-27561D01*
X51688Y-27715D01*
X51890Y-27799D01*
X52108Y-27800D01*
X52311Y-27716D01*
X52465Y-27561D01*
X52499Y-27480D01*
X52533Y-27561D01*
X52688Y-27715D01*
X52890Y-27799D01*
X53108Y-27800D01*
X53311Y-27716D01*
X53465Y-27561D01*
X53499Y-27480D01*
X53533Y-27561D01*
X53688Y-27715D01*
X53890Y-27799D01*
X54108Y-27800D01*
X54311Y-27716D01*
X54465Y-27561D01*
X54499Y-27480D01*
X54533Y-27561D01*
X54688Y-27715D01*
X54890Y-27799D01*
X55108Y-27800D01*
X55311Y-27716D01*
X55463Y-27564D01*
X55508Y-27610D01*
X55544Y-27624D01*
X55509Y-27639D01*
X55389Y-27758D01*
X55325Y-27915D01*
X55324Y-28084D01*
X55389Y-28240D01*
X55508Y-28360D01*
X55665Y-28424D01*
X55834Y-28425D01*
X55990Y-28360D01*
X56051Y-28300D01*
X56448Y-28300D01*
X56508Y-28360D01*
X56665Y-28424D01*
X56834Y-28425D01*
X56990Y-28360D01*
X57110Y-28241D01*
X57174Y-28084D01*
X57175Y-27915D01*
X57110Y-27759D01*
X56991Y-27639D01*
X56834Y-27575D01*
X56665Y-27574D01*
X56509Y-27639D01*
X56448Y-27700D01*
X56051Y-27700D01*
X55991Y-27639D01*
X55955Y-27625D01*
X55990Y-27610D01*
X56101Y-27500D01*
X58098Y-27500D01*
X58158Y-27560D01*
X58315Y-27624D01*
X58484Y-27625D01*
X58640Y-27560D01*
X58760Y-27441D01*
X58824Y-27284D01*
X58825Y-27115D01*
X58760Y-26959D01*
X58641Y-26839D01*
X58484Y-26775D01*
X58315Y-26774D01*
X58159Y-26839D01*
X58098Y-26900D01*
X56001Y-26900D01*
X55991Y-26889D01*
X55834Y-26825D01*
X55665Y-26824D01*
X55509Y-26889D01*
X55463Y-26935D01*
X55327Y-26800D01*
X55349Y-26800D01*
X55441Y-26762D01*
X55511Y-26691D01*
X55549Y-26599D01*
X55550Y-26500D01*
X55550Y-25900D01*
X55538Y-25872D01*
X55665Y-25924D01*
X55834Y-25925D01*
X55990Y-25860D01*
X56051Y-25800D01*
X58948Y-25800D01*
X59008Y-25860D01*
X59165Y-25924D01*
X59334Y-25925D01*
X59490Y-25860D01*
X59610Y-25741D01*
X59674Y-25584D01*
X59675Y-25415D01*
X59675Y-30884D01*
X59572Y-30884D01*
X59380Y-30963D01*
X59249Y-31094D01*
X59119Y-30964D01*
X58928Y-30885D01*
X58722Y-30884D01*
X58530Y-30963D01*
X58399Y-31094D01*
X58269Y-30964D01*
X58078Y-30885D01*
X57872Y-30884D01*
X57680Y-30963D01*
X57549Y-31094D01*
X57419Y-30964D01*
X57228Y-30885D01*
X57022Y-30884D01*
X56830Y-30963D01*
X56699Y-31094D01*
X56569Y-30964D01*
X56378Y-30885D01*
X56172Y-30884D01*
X55980Y-30963D01*
X55849Y-31094D01*
X55719Y-30964D01*
X55528Y-30885D01*
X55322Y-30884D01*
X55130Y-30963D01*
X54984Y-31110D01*
X54979Y-31121D01*
X54939Y-31111D01*
X54868Y-31182D01*
X54868Y-31040D01*
X54844Y-30948D01*
X54649Y-30880D01*
X54443Y-30891D01*
X54305Y-30948D01*
X54281Y-31040D01*
X54575Y-31334D01*
X54868Y-31040D01*
X54868Y-31182D01*
X54645Y-31405D01*
X54939Y-31698D01*
X54979Y-31688D01*
X54983Y-31699D01*
X55130Y-31845D01*
X55321Y-31924D01*
X55527Y-31925D01*
X55719Y-31846D01*
X55850Y-31715D01*
X55980Y-31845D01*
X56171Y-31924D01*
X56377Y-31925D01*
X56569Y-31846D01*
X56700Y-31715D01*
X56830Y-31845D01*
X57021Y-31924D01*
X57227Y-31925D01*
X57419Y-31846D01*
X57550Y-31715D01*
X57680Y-31845D01*
X57871Y-31924D01*
X58077Y-31925D01*
X58269Y-31846D01*
X58400Y-31715D01*
X58530Y-31845D01*
X58721Y-31924D01*
X58927Y-31925D01*
X59119Y-31846D01*
X59250Y-31715D01*
X59366Y-31832D01*
X59289Y-31908D01*
X59225Y-32065D01*
X59224Y-32234D01*
X59289Y-32390D01*
X59408Y-32510D01*
X59565Y-32574D01*
X59660Y-32575D01*
X59543Y-32581D01*
X59405Y-32638D01*
X59381Y-32730D01*
X59675Y-33024D01*
X59968Y-32730D01*
X59944Y-32638D01*
X59749Y-32570D01*
X59745Y-32570D01*
X59890Y-32510D01*
X60001Y-32400D01*
X60198Y-32400D01*
X60258Y-32460D01*
X60415Y-32524D01*
X60584Y-32525D01*
X60740Y-32460D01*
X60860Y-32341D01*
X60924Y-32184D01*
X60925Y-32015D01*
X60860Y-31859D01*
X60833Y-31832D01*
X60950Y-31715D01*
X61075Y-31840D01*
X61075Y-32225D01*
X61097Y-32339D01*
X61162Y-32437D01*
X61300Y-32574D01*
X61272Y-32574D01*
X61080Y-32653D01*
X60949Y-32784D01*
X60819Y-32654D01*
X60628Y-32575D01*
X60422Y-32574D01*
X60230Y-32653D01*
X60084Y-32800D01*
X60079Y-32811D01*
X60039Y-32801D01*
X59745Y-33095D01*
X60039Y-33388D01*
X60079Y-33378D01*
X60083Y-33389D01*
X60230Y-33535D01*
X60421Y-33614D01*
X60627Y-33615D01*
X60819Y-33536D01*
X60950Y-33405D01*
X61080Y-33535D01*
X61271Y-33614D01*
X61477Y-33615D01*
X61510Y-33601D01*
X61522Y-33664D01*
X61587Y-33762D01*
X61787Y-33962D01*
X61787Y-33962D01*
X61885Y-34027D01*
X61936Y-34037D01*
X62008Y-34110D01*
X62165Y-34174D01*
X62334Y-34175D01*
X62490Y-34110D01*
X62610Y-33991D01*
X62674Y-33834D01*
X62675Y-33665D01*
X62610Y-33509D01*
X62578Y-33477D01*
X62650Y-33405D01*
X62780Y-33535D01*
X62971Y-33614D01*
X63177Y-33615D01*
X63369Y-33536D01*
X63500Y-33405D01*
X63630Y-33535D01*
X63821Y-33614D01*
X64027Y-33615D01*
X64219Y-33536D01*
X64365Y-33389D01*
X64444Y-33198D01*
X64445Y-32992D01*
X64445Y-35950D01*
X59968Y-35950D01*
X59968Y-33459D01*
X59675Y-33165D01*
X59604Y-33236D01*
X59604Y-33095D01*
X59310Y-32801D01*
X59250Y-32817D01*
X59189Y-32801D01*
X59118Y-32872D01*
X59118Y-32730D01*
X59094Y-32638D01*
X58899Y-32570D01*
X58693Y-32581D01*
X58555Y-32638D01*
X58531Y-32730D01*
X58825Y-33024D01*
X59118Y-32730D01*
X59118Y-32872D01*
X58895Y-33095D01*
X59189Y-33388D01*
X59250Y-33372D01*
X59310Y-33388D01*
X59604Y-33095D01*
X59604Y-33236D01*
X59381Y-33459D01*
X59405Y-33551D01*
X59600Y-33619D01*
X59806Y-33608D01*
X59944Y-33551D01*
X59968Y-33459D01*
X59968Y-35950D01*
X59118Y-35950D01*
X59118Y-33459D01*
X58825Y-33165D01*
X58754Y-33236D01*
X58754Y-33095D01*
X58460Y-32801D01*
X58400Y-32817D01*
X58339Y-32801D01*
X58268Y-32872D01*
X58268Y-32730D01*
X58244Y-32638D01*
X58049Y-32570D01*
X57843Y-32581D01*
X57705Y-32638D01*
X57681Y-32730D01*
X57975Y-33024D01*
X58268Y-32730D01*
X58268Y-32872D01*
X58045Y-33095D01*
X58339Y-33388D01*
X58400Y-33372D01*
X58460Y-33388D01*
X58754Y-33095D01*
X58754Y-33236D01*
X58531Y-33459D01*
X58555Y-33551D01*
X58750Y-33619D01*
X58956Y-33608D01*
X59094Y-33551D01*
X59118Y-33459D01*
X59118Y-35950D01*
X58268Y-35950D01*
X58268Y-33459D01*
X57975Y-33165D01*
X57904Y-33236D01*
X57904Y-33095D01*
X57610Y-32801D01*
X57550Y-32817D01*
X57489Y-32801D01*
X57418Y-32872D01*
X57418Y-32730D01*
X57394Y-32638D01*
X57199Y-32570D01*
X56993Y-32581D01*
X56855Y-32638D01*
X56831Y-32730D01*
X57125Y-33024D01*
X57418Y-32730D01*
X57418Y-32872D01*
X57195Y-33095D01*
X57489Y-33388D01*
X57550Y-33372D01*
X57610Y-33388D01*
X57904Y-33095D01*
X57904Y-33236D01*
X57681Y-33459D01*
X57705Y-33551D01*
X57900Y-33619D01*
X58106Y-33608D01*
X58244Y-33551D01*
X58268Y-33459D01*
X58268Y-35950D01*
X57418Y-35950D01*
X57418Y-33459D01*
X57125Y-33165D01*
X57054Y-33236D01*
X57054Y-33095D01*
X56760Y-32801D01*
X56700Y-32817D01*
X56639Y-32801D01*
X56568Y-32872D01*
X56568Y-32730D01*
X56544Y-32638D01*
X56349Y-32570D01*
X56143Y-32581D01*
X56005Y-32638D01*
X55981Y-32730D01*
X56275Y-33024D01*
X56568Y-32730D01*
X56568Y-32872D01*
X56345Y-33095D01*
X56639Y-33388D01*
X56700Y-33372D01*
X56760Y-33388D01*
X57054Y-33095D01*
X57054Y-33236D01*
X56831Y-33459D01*
X56855Y-33551D01*
X57050Y-33619D01*
X57256Y-33608D01*
X57394Y-33551D01*
X57418Y-33459D01*
X57418Y-35950D01*
X56568Y-35950D01*
X56568Y-33459D01*
X56275Y-33165D01*
X56204Y-33236D01*
X56204Y-33095D01*
X55910Y-32801D01*
X55850Y-32817D01*
X55789Y-32801D01*
X55718Y-32872D01*
X55718Y-32730D01*
X55694Y-32638D01*
X55499Y-32570D01*
X55293Y-32581D01*
X55155Y-32638D01*
X55131Y-32730D01*
X55425Y-33024D01*
X55718Y-32730D01*
X55718Y-32872D01*
X55495Y-33095D01*
X55789Y-33388D01*
X55850Y-33372D01*
X55910Y-33388D01*
X56204Y-33095D01*
X56204Y-33236D01*
X55981Y-33459D01*
X56005Y-33551D01*
X56200Y-33619D01*
X56406Y-33608D01*
X56544Y-33551D01*
X56568Y-33459D01*
X56568Y-35950D01*
X55718Y-35950D01*
X55718Y-33459D01*
X55425Y-33165D01*
X55354Y-33236D01*
X55354Y-33095D01*
X55060Y-32801D01*
X55000Y-32817D01*
X54939Y-32801D01*
X54868Y-32872D01*
X54868Y-32730D01*
X54868Y-31769D01*
X54575Y-31475D01*
X54504Y-31546D01*
X54504Y-31405D01*
X54210Y-31111D01*
X54118Y-31135D01*
X54050Y-31330D01*
X54061Y-31536D01*
X54118Y-31674D01*
X54210Y-31698D01*
X54504Y-31405D01*
X54504Y-31546D01*
X54281Y-31769D01*
X54305Y-31861D01*
X54500Y-31929D01*
X54706Y-31918D01*
X54844Y-31861D01*
X54868Y-31769D01*
X54868Y-32730D01*
X54844Y-32638D01*
X54649Y-32570D01*
X54443Y-32581D01*
X54305Y-32638D01*
X54281Y-32730D01*
X54575Y-33024D01*
X54868Y-32730D01*
X54868Y-32872D01*
X54645Y-33095D01*
X54939Y-33388D01*
X55000Y-33372D01*
X55060Y-33388D01*
X55354Y-33095D01*
X55354Y-33236D01*
X55131Y-33459D01*
X55155Y-33551D01*
X55350Y-33619D01*
X55556Y-33608D01*
X55694Y-33551D01*
X55718Y-33459D01*
X55718Y-35950D01*
X54868Y-35950D01*
X54868Y-33459D01*
X54575Y-33165D01*
X54504Y-33236D01*
X54504Y-33095D01*
X54210Y-32801D01*
X54118Y-32825D01*
X54050Y-33020D01*
X54061Y-33226D01*
X54118Y-33364D01*
X54210Y-33388D01*
X54504Y-33095D01*
X54504Y-33236D01*
X54281Y-33459D01*
X54305Y-33551D01*
X54500Y-33619D01*
X54706Y-33608D01*
X54844Y-33551D01*
X54868Y-33459D01*
X54868Y-35950D01*
X50050Y-35950D01*
X50050Y-34050D01*
X52050Y-34050D01*
X52050Y-30450D01*
X51315Y-30450D01*
X51315Y-27635D01*
X51000Y-27320D01*
X50929Y-27391D01*
X50929Y-27250D01*
X50614Y-26934D01*
X50518Y-26962D01*
X50445Y-27168D01*
X50456Y-27386D01*
X50518Y-27537D01*
X50614Y-27565D01*
X50929Y-27250D01*
X50929Y-27391D01*
X50684Y-27635D01*
X50712Y-27731D01*
X50918Y-27804D01*
X51136Y-27793D01*
X51287Y-27731D01*
X51315Y-27635D01*
X51315Y-30450D01*
X50050Y-30450D01*
X50050Y-23050D01*
X52050Y-23050D01*
X52050Y-19450D01*
X50050Y-19450D01*
X50050Y-17550D01*
X68450Y-17550D01*
X68450Y-19450D01*
X66450Y-19450D01*
X66450Y-23050D01*
X68450Y-23050D01*
X68450Y-30450D01*
X67925Y-30450D01*
X67925Y-30424D01*
X68084Y-30425D01*
X68240Y-30360D01*
X68360Y-30241D01*
X68424Y-30084D01*
X68425Y-29915D01*
X68425Y-28165D01*
X68360Y-28009D01*
X68241Y-27889D01*
X68084Y-27825D01*
X68050Y-27825D01*
X68050Y-27141D01*
X67966Y-26938D01*
X67827Y-26800D01*
X67849Y-26800D01*
X67941Y-26762D01*
X68011Y-26691D01*
X68049Y-26599D01*
X68050Y-26500D01*
X68050Y-25900D01*
X68012Y-25808D01*
X67941Y-25738D01*
X67849Y-25700D01*
X67750Y-25699D01*
X67150Y-25699D01*
X67058Y-25737D01*
X66988Y-25808D01*
X66950Y-25900D01*
X66950Y-25922D01*
X66811Y-25784D01*
X66609Y-25700D01*
X66425Y-25699D01*
X66425Y-25165D01*
X66360Y-25009D01*
X66241Y-24889D01*
X66205Y-24875D01*
X66240Y-24860D01*
X66360Y-24741D01*
X66424Y-24584D01*
X66425Y-24415D01*
X66425Y-22665D01*
X66360Y-22509D01*
X66241Y-22389D01*
X66084Y-22325D01*
X65915Y-22324D01*
X65759Y-22389D01*
X65698Y-22450D01*
X64305Y-22450D01*
X64365Y-22389D01*
X64444Y-22198D01*
X64445Y-21992D01*
X64445Y-20302D01*
X64366Y-20110D01*
X64219Y-19964D01*
X64028Y-19885D01*
X63822Y-19884D01*
X63630Y-19963D01*
X63499Y-20094D01*
X63369Y-19964D01*
X63178Y-19885D01*
X62972Y-19884D01*
X62780Y-19963D01*
X62649Y-20094D01*
X62519Y-19964D01*
X62328Y-19885D01*
X62122Y-19884D01*
X61930Y-19963D01*
X61799Y-20094D01*
X61669Y-19964D01*
X61478Y-19885D01*
X61272Y-19884D01*
X61080Y-19963D01*
X60949Y-20094D01*
X60819Y-19964D01*
X60628Y-19885D01*
X60422Y-19884D01*
X60230Y-19963D01*
X60084Y-20110D01*
X60079Y-20121D01*
X60039Y-20111D01*
X59968Y-20182D01*
X59968Y-20040D01*
X59944Y-19948D01*
X59749Y-19880D01*
X59543Y-19891D01*
X59405Y-19948D01*
X59381Y-20040D01*
X59675Y-20334D01*
X59968Y-20040D01*
X59968Y-20182D01*
X59745Y-20405D01*
X60039Y-20698D01*
X60079Y-20688D01*
X60083Y-20699D01*
X60230Y-20845D01*
X60421Y-20924D01*
X60627Y-20925D01*
X60819Y-20846D01*
X60950Y-20715D01*
X61080Y-20845D01*
X61271Y-20924D01*
X61477Y-20925D01*
X61669Y-20846D01*
X61800Y-20715D01*
X61930Y-20845D01*
X62121Y-20924D01*
X62327Y-20925D01*
X62519Y-20846D01*
X62650Y-20715D01*
X62780Y-20845D01*
X62971Y-20924D01*
X63177Y-20925D01*
X63369Y-20846D01*
X63500Y-20715D01*
X63630Y-20845D01*
X63821Y-20924D01*
X64027Y-20925D01*
X64219Y-20846D01*
X64365Y-20699D01*
X64444Y-20508D01*
X64445Y-20302D01*
X64445Y-21992D01*
X64366Y-21800D01*
X64219Y-21654D01*
X64028Y-21575D01*
X63822Y-21574D01*
X63630Y-21653D01*
X63499Y-21784D01*
X63369Y-21654D01*
X63178Y-21575D01*
X62972Y-21574D01*
X62780Y-21653D01*
X62649Y-21784D01*
X62519Y-21654D01*
X62328Y-21575D01*
X62122Y-21574D01*
X61930Y-21653D01*
X61799Y-21784D01*
X61669Y-21654D01*
X61478Y-21575D01*
X61272Y-21574D01*
X61080Y-21653D01*
X60949Y-21784D01*
X60819Y-21654D01*
X60628Y-21575D01*
X60422Y-21574D01*
X60230Y-21653D01*
X60099Y-21784D01*
X59969Y-21654D01*
X59968Y-21653D01*
X59968Y-20769D01*
X59675Y-20475D01*
X59604Y-20546D01*
X59604Y-20405D01*
X59310Y-20111D01*
X59250Y-20127D01*
X59189Y-20111D01*
X59118Y-20182D01*
X59118Y-20040D01*
X59094Y-19948D01*
X58899Y-19880D01*
X58693Y-19891D01*
X58555Y-19948D01*
X58531Y-20040D01*
X58825Y-20334D01*
X59118Y-20040D01*
X59118Y-20182D01*
X58895Y-20405D01*
X59189Y-20698D01*
X59250Y-20682D01*
X59310Y-20698D01*
X59604Y-20405D01*
X59604Y-20546D01*
X59381Y-20769D01*
X59405Y-20861D01*
X59600Y-20929D01*
X59806Y-20918D01*
X59944Y-20861D01*
X59968Y-20769D01*
X59968Y-21653D01*
X59778Y-21575D01*
X59572Y-21574D01*
X59380Y-21653D01*
X59249Y-21784D01*
X59119Y-21654D01*
X59118Y-21653D01*
X59118Y-20769D01*
X58825Y-20475D01*
X58754Y-20546D01*
X58754Y-20405D01*
X58460Y-20111D01*
X58400Y-20127D01*
X58339Y-20111D01*
X58268Y-20182D01*
X58268Y-20040D01*
X58244Y-19948D01*
X58049Y-19880D01*
X57843Y-19891D01*
X57705Y-19948D01*
X57681Y-20040D01*
X57975Y-20334D01*
X58268Y-20040D01*
X58268Y-20182D01*
X58045Y-20405D01*
X58339Y-20698D01*
X58400Y-20682D01*
X58460Y-20698D01*
X58754Y-20405D01*
X58754Y-20546D01*
X58531Y-20769D01*
X58555Y-20861D01*
X58750Y-20929D01*
X58956Y-20918D01*
X59094Y-20861D01*
X59118Y-20769D01*
X59118Y-21653D01*
X58928Y-21575D01*
X58722Y-21574D01*
X58530Y-21653D01*
X58399Y-21784D01*
X58269Y-21654D01*
X58268Y-21653D01*
X58268Y-20769D01*
X57975Y-20475D01*
X57904Y-20546D01*
X57904Y-20405D01*
X57610Y-20111D01*
X57550Y-20127D01*
X57489Y-20111D01*
X57418Y-20182D01*
X57418Y-20040D01*
X57394Y-19948D01*
X57199Y-19880D01*
X56993Y-19891D01*
X56855Y-19948D01*
X56831Y-20040D01*
X57125Y-20334D01*
X57418Y-20040D01*
X57418Y-20182D01*
X57195Y-20405D01*
X57489Y-20698D01*
X57550Y-20682D01*
X57610Y-20698D01*
X57904Y-20405D01*
X57904Y-20546D01*
X57681Y-20769D01*
X57705Y-20861D01*
X57900Y-20929D01*
X58106Y-20918D01*
X58244Y-20861D01*
X58268Y-20769D01*
X58268Y-21653D01*
X58078Y-21575D01*
X57872Y-21574D01*
X57680Y-21653D01*
X57549Y-21784D01*
X57419Y-21654D01*
X57418Y-21653D01*
X57418Y-20769D01*
X57125Y-20475D01*
X57054Y-20546D01*
X57054Y-20405D01*
X56760Y-20111D01*
X56700Y-20127D01*
X56639Y-20111D01*
X56568Y-20182D01*
X56568Y-20040D01*
X56544Y-19948D01*
X56349Y-19880D01*
X56143Y-19891D01*
X56005Y-19948D01*
X55981Y-20040D01*
X56275Y-20334D01*
X56568Y-20040D01*
X56568Y-20182D01*
X56345Y-20405D01*
X56639Y-20698D01*
X56700Y-20682D01*
X56760Y-20698D01*
X57054Y-20405D01*
X57054Y-20546D01*
X56831Y-20769D01*
X56855Y-20861D01*
X57050Y-20929D01*
X57256Y-20918D01*
X57394Y-20861D01*
X57418Y-20769D01*
X57418Y-21653D01*
X57228Y-21575D01*
X57022Y-21574D01*
X56830Y-21653D01*
X56699Y-21784D01*
X56569Y-21654D01*
X56568Y-21653D01*
X56568Y-20769D01*
X56275Y-20475D01*
X56204Y-20546D01*
X56204Y-20405D01*
X55910Y-20111D01*
X55850Y-20127D01*
X55789Y-20111D01*
X55718Y-20182D01*
X55718Y-20040D01*
X55694Y-19948D01*
X55499Y-19880D01*
X55293Y-19891D01*
X55155Y-19948D01*
X55131Y-20040D01*
X55425Y-20334D01*
X55718Y-20040D01*
X55718Y-20182D01*
X55495Y-20405D01*
X55789Y-20698D01*
X55850Y-20682D01*
X55910Y-20698D01*
X56204Y-20405D01*
X56204Y-20546D01*
X55981Y-20769D01*
X56005Y-20861D01*
X56200Y-20929D01*
X56406Y-20918D01*
X56544Y-20861D01*
X56568Y-20769D01*
X56568Y-21653D01*
X56378Y-21575D01*
X56172Y-21574D01*
X55980Y-21653D01*
X55849Y-21784D01*
X55719Y-21654D01*
X55718Y-21653D01*
X55718Y-20769D01*
X55425Y-20475D01*
X55354Y-20546D01*
X55354Y-20405D01*
X55060Y-20111D01*
X55000Y-20127D01*
X54939Y-20111D01*
X54868Y-20182D01*
X54868Y-20040D01*
X54844Y-19948D01*
X54649Y-19880D01*
X54443Y-19891D01*
X54305Y-19948D01*
X54281Y-20040D01*
X54575Y-20334D01*
X54868Y-20040D01*
X54868Y-20182D01*
X54645Y-20405D01*
X54939Y-20698D01*
X55000Y-20682D01*
X55060Y-20698D01*
X55354Y-20405D01*
X55354Y-20546D01*
X55131Y-20769D01*
X55155Y-20861D01*
X55350Y-20929D01*
X55556Y-20918D01*
X55694Y-20861D01*
X55718Y-20769D01*
X55718Y-21653D01*
X55528Y-21575D01*
X55322Y-21574D01*
X55130Y-21653D01*
X54984Y-21800D01*
X54979Y-21811D01*
X54939Y-21801D01*
X54868Y-21872D01*
X54868Y-21730D01*
X54868Y-20769D01*
X54575Y-20475D01*
X54504Y-20546D01*
X54504Y-20405D01*
X54210Y-20111D01*
X54118Y-20135D01*
X54050Y-20330D01*
X54061Y-20536D01*
X54118Y-20674D01*
X54210Y-20698D01*
X54504Y-20405D01*
X54504Y-20546D01*
X54281Y-20769D01*
X54305Y-20861D01*
X54500Y-20929D01*
X54706Y-20918D01*
X54844Y-20861D01*
X54868Y-20769D01*
X54868Y-21730D01*
X54844Y-21638D01*
X54649Y-21570D01*
X54443Y-21581D01*
X54305Y-21638D01*
X54281Y-21730D01*
X54575Y-22024D01*
X54868Y-21730D01*
X54868Y-21872D01*
X54645Y-22095D01*
X54939Y-22388D01*
X54979Y-22378D01*
X54983Y-22389D01*
X55130Y-22535D01*
X55321Y-22614D01*
X55527Y-22615D01*
X55719Y-22536D01*
X55850Y-22405D01*
X55980Y-22535D01*
X56171Y-22614D01*
X56377Y-22615D01*
X56569Y-22536D01*
X56700Y-22405D01*
X56830Y-22535D01*
X57021Y-22614D01*
X57227Y-22615D01*
X57419Y-22536D01*
X57550Y-22405D01*
X57680Y-22535D01*
X57871Y-22614D01*
X58077Y-22615D01*
X58269Y-22536D01*
X58400Y-22405D01*
X58530Y-22535D01*
X58721Y-22614D01*
X58927Y-22615D01*
X59119Y-22536D01*
X59250Y-22405D01*
X59380Y-22535D01*
X59571Y-22614D01*
X59777Y-22615D01*
X59969Y-22536D01*
X60100Y-22405D01*
X60230Y-22535D01*
X60421Y-22614D01*
X60627Y-22615D01*
X60819Y-22536D01*
X60950Y-22405D01*
X61080Y-22535D01*
X61271Y-22614D01*
X61477Y-22615D01*
X61669Y-22536D01*
X61800Y-22405D01*
X61930Y-22535D01*
X62121Y-22614D01*
X62327Y-22615D01*
X62519Y-22536D01*
X62650Y-22405D01*
X62780Y-22535D01*
X62971Y-22614D01*
X63095Y-22615D01*
X63075Y-22665D01*
X63074Y-22834D01*
X63139Y-22990D01*
X63258Y-23110D01*
X63415Y-23174D01*
X63584Y-23175D01*
X63740Y-23110D01*
X63801Y-23050D01*
X65698Y-23050D01*
X65758Y-23110D01*
X65915Y-23174D01*
X66084Y-23175D01*
X66240Y-23110D01*
X66360Y-22991D01*
X66424Y-22834D01*
X66425Y-22665D01*
X66425Y-24415D01*
X66360Y-24259D01*
X66241Y-24139D01*
X66084Y-24075D01*
X65915Y-24074D01*
X65759Y-24139D01*
X65698Y-24200D01*
X64301Y-24200D01*
X64241Y-24139D01*
X64084Y-24075D01*
X63915Y-24074D01*
X63759Y-24139D01*
X63639Y-24258D01*
X63575Y-24415D01*
X63574Y-24584D01*
X63639Y-24740D01*
X63758Y-24860D01*
X63794Y-24874D01*
X63759Y-24889D01*
X63639Y-25008D01*
X63575Y-25165D01*
X63574Y-25334D01*
X63639Y-25490D01*
X63758Y-25610D01*
X63915Y-25674D01*
X64084Y-25675D01*
X64240Y-25610D01*
X64301Y-25550D01*
X65698Y-25550D01*
X65758Y-25610D01*
X65915Y-25674D01*
X66084Y-25675D01*
X66240Y-25610D01*
X66360Y-25491D01*
X66424Y-25334D01*
X66425Y-25165D01*
X66425Y-25699D01*
X66391Y-25699D01*
X66188Y-25783D01*
X66034Y-25938D01*
X66000Y-26019D01*
X65966Y-25938D01*
X65811Y-25784D01*
X65609Y-25700D01*
X65391Y-25699D01*
X65188Y-25783D01*
X65034Y-25938D01*
X65000Y-26019D01*
X64966Y-25938D01*
X64811Y-25784D01*
X64609Y-25700D01*
X64391Y-25699D01*
X64188Y-25783D01*
X64034Y-25938D01*
X64002Y-26013D01*
X63981Y-25962D01*
X63885Y-25934D01*
X63815Y-26005D01*
X63815Y-25864D01*
X63787Y-25768D01*
X63581Y-25695D01*
X63363Y-25706D01*
X63212Y-25768D01*
X63184Y-25864D01*
X63500Y-26179D01*
X63815Y-25864D01*
X63815Y-26005D01*
X63570Y-26250D01*
X63885Y-26565D01*
X63981Y-26537D01*
X64000Y-26482D01*
X64033Y-26561D01*
X64188Y-26715D01*
X64269Y-26749D01*
X64188Y-26783D01*
X64034Y-26938D01*
X64002Y-27013D01*
X63981Y-26962D01*
X63885Y-26934D01*
X63815Y-27005D01*
X63815Y-26864D01*
X63787Y-26768D01*
X63739Y-26751D01*
X63787Y-26731D01*
X63815Y-26635D01*
X63500Y-26320D01*
X63429Y-26391D01*
X63429Y-26250D01*
X63114Y-25934D01*
X63018Y-25962D01*
X62945Y-26168D01*
X62956Y-26386D01*
X63018Y-26537D01*
X63114Y-26565D01*
X63429Y-26250D01*
X63429Y-26391D01*
X63184Y-26635D01*
X63212Y-26731D01*
X63260Y-26748D01*
X63212Y-26768D01*
X63184Y-26864D01*
X63500Y-27179D01*
X63815Y-26864D01*
X63815Y-27005D01*
X63570Y-27250D01*
X63885Y-27565D01*
X63981Y-27537D01*
X64000Y-27482D01*
X64033Y-27561D01*
X64188Y-27715D01*
X64390Y-27799D01*
X64608Y-27800D01*
X64811Y-27716D01*
X64965Y-27561D01*
X64999Y-27480D01*
X65033Y-27561D01*
X65188Y-27715D01*
X65390Y-27799D01*
X65608Y-27800D01*
X65811Y-27716D01*
X65965Y-27561D01*
X65999Y-27480D01*
X66033Y-27561D01*
X66188Y-27715D01*
X66390Y-27799D01*
X66608Y-27800D01*
X66811Y-27716D01*
X66965Y-27561D01*
X66999Y-27480D01*
X67033Y-27561D01*
X67188Y-27715D01*
X67390Y-27799D01*
X67608Y-27800D01*
X67811Y-27716D01*
X67965Y-27561D01*
X68049Y-27359D01*
X68050Y-27141D01*
X68050Y-27825D01*
X67915Y-27824D01*
X67759Y-27889D01*
X67698Y-27950D01*
X65301Y-27950D01*
X65241Y-27889D01*
X65084Y-27825D01*
X64915Y-27824D01*
X64759Y-27889D01*
X64639Y-28008D01*
X64575Y-28165D01*
X64574Y-28334D01*
X64639Y-28490D01*
X64758Y-28610D01*
X64915Y-28674D01*
X65084Y-28675D01*
X65240Y-28610D01*
X65301Y-28550D01*
X67698Y-28550D01*
X67758Y-28610D01*
X67915Y-28674D01*
X68084Y-28675D01*
X68240Y-28610D01*
X68360Y-28491D01*
X68424Y-28334D01*
X68425Y-28165D01*
X68425Y-29915D01*
X68360Y-29759D01*
X68241Y-29639D01*
X68084Y-29575D01*
X67915Y-29574D01*
X67759Y-29639D01*
X67698Y-29700D01*
X66801Y-29700D01*
X66741Y-29639D01*
X66584Y-29575D01*
X66415Y-29574D01*
X66259Y-29639D01*
X66139Y-29758D01*
X66075Y-29915D01*
X66074Y-30084D01*
X66122Y-30200D01*
X65301Y-30200D01*
X65241Y-30139D01*
X65084Y-30075D01*
X64915Y-30074D01*
X64759Y-30139D01*
X64639Y-30258D01*
X64575Y-30415D01*
X64574Y-30584D01*
X64639Y-30740D01*
X64758Y-30860D01*
X64794Y-30874D01*
X64759Y-30889D01*
X64639Y-31008D01*
X64575Y-31165D01*
X64574Y-31334D01*
X64639Y-31490D01*
X64758Y-31610D01*
X64915Y-31674D01*
X65084Y-31675D01*
X65240Y-31610D01*
X65301Y-31550D01*
X66198Y-31550D01*
X66258Y-31610D01*
X66415Y-31674D01*
X66450Y-31674D01*
X66450Y-34050D01*
X68450Y-34050D01*
X68450Y-35950D01*
M02*
