G04 (created by PCBNEW (22-Jun-2014 BZR 4027)-stable) date Fri 07 Jul 2017 01:08:53 AM CDT*
%MOIN*%
G04 Gerber Fmt 3.4, Leading zero omitted, Abs format*
%FSLAX34Y34*%
G01*
G70*
G90*
G04 APERTURE LIST*
%ADD10C,0.00590551*%
%ADD11R,0.06X0.06*%
%ADD12C,0.06*%
%ADD13C,0.054*%
G04 APERTURE END LIST*
G54D10*
G54D11*
X67500Y-26250D03*
G54D12*
X67500Y-27250D03*
X66500Y-26250D03*
X66500Y-27250D03*
X65500Y-26250D03*
X65500Y-27250D03*
X64500Y-26250D03*
X64500Y-27250D03*
X63500Y-26250D03*
X63500Y-27250D03*
G54D11*
X55000Y-26250D03*
G54D12*
X55000Y-27250D03*
X54000Y-26250D03*
X54000Y-27250D03*
X53000Y-26250D03*
X53000Y-27250D03*
X52000Y-26250D03*
X52000Y-27250D03*
X51000Y-26250D03*
X51000Y-27250D03*
G54D13*
X59675Y-22095D03*
X60525Y-22095D03*
X57975Y-22095D03*
X58825Y-22095D03*
X59675Y-20405D03*
X58825Y-20405D03*
X57975Y-20405D03*
X60525Y-20405D03*
X57125Y-22095D03*
X56275Y-22095D03*
X55425Y-22095D03*
X54575Y-22095D03*
X57125Y-20405D03*
X56275Y-20405D03*
X55425Y-20405D03*
X54575Y-20405D03*
X61375Y-22095D03*
X62225Y-22095D03*
X63075Y-22095D03*
X63925Y-22095D03*
X61375Y-20405D03*
X62225Y-20405D03*
X63075Y-20405D03*
X63925Y-20405D03*
X58825Y-31405D03*
X57975Y-31405D03*
X60525Y-31405D03*
X59675Y-31405D03*
X58825Y-33095D03*
X59675Y-33095D03*
X60525Y-33095D03*
X57975Y-33095D03*
X61375Y-31405D03*
X62225Y-31405D03*
X63075Y-31405D03*
X63925Y-31405D03*
X61375Y-33095D03*
X62225Y-33095D03*
X63075Y-33095D03*
X63925Y-33095D03*
X57125Y-31405D03*
X56275Y-31405D03*
X55425Y-31405D03*
X54575Y-31405D03*
X57125Y-33095D03*
X56275Y-33095D03*
X55425Y-33095D03*
X54575Y-33095D03*
M02*
