M48
;DRILL file {Pcbnew (22-Jun-2014 BZR 4027)-stable} date Fri 07 Jul 2017 01:09:04 AM CDT
;FORMAT={-:-/ absolute / inch / decimal}
FMAT,2
INCH,TZ
T1C0.025
T2C0.032
T3C0.040
%
G90
G05
M72
T1
X5.575Y-2.475
X5.575Y-2.55
X5.575Y-2.725
X5.575Y-2.8
X5.675Y-2.8
X5.75Y-2.475
X5.84Y-2.72
X5.925Y-2.55
X5.965Y-3.215
X6.05Y-3.21
X6.225Y-3.375
X6.35Y-2.275
X6.4Y-2.45
X6.4Y-2.525
X6.5Y-2.825
X6.5Y-3.05
X6.5Y-3.125
X6.6Y-2.275
X6.6Y-2.45
X6.6Y-2.525
X6.65Y-3.
X6.65Y-3.125
X6.75Y-3.05
X6.8Y-2.825
X6.8Y-3.
T2
X5.4575Y-2.0405
X5.4575Y-2.2095
X5.4575Y-3.1405
X5.4575Y-3.3095
X5.5425Y-2.0405
X5.5425Y-2.2095
X5.5425Y-3.1405
X5.5425Y-3.3095
X5.6275Y-2.0405
X5.6275Y-2.2095
X5.6275Y-3.1405
X5.6275Y-3.3095
X5.7125Y-2.0405
X5.7125Y-2.2095
X5.7125Y-3.1405
X5.7125Y-3.3095
X5.7975Y-2.0405
X5.7975Y-2.2095
X5.7975Y-3.1405
X5.7975Y-3.3095
X5.8825Y-2.0405
X5.8825Y-2.2095
X5.8825Y-3.1405
X5.8825Y-3.3095
X5.9675Y-2.0405
X5.9675Y-2.2095
X5.9675Y-3.1405
X5.9675Y-3.3095
X6.0525Y-2.0405
X6.0525Y-2.2095
X6.0525Y-3.1405
X6.0525Y-3.3095
X6.1375Y-2.0405
X6.1375Y-2.2095
X6.1375Y-3.1405
X6.1375Y-3.3095
X6.2225Y-2.0405
X6.2225Y-2.2095
X6.2225Y-3.1405
X6.2225Y-3.3095
X6.3075Y-2.0405
X6.3075Y-2.2095
X6.3075Y-3.1405
X6.3075Y-3.3095
X6.3925Y-2.0405
X6.3925Y-2.2095
X6.3925Y-3.1405
X6.3925Y-3.3095
T3
X5.1Y-2.625
X5.1Y-2.725
X5.2Y-2.625
X5.2Y-2.725
X5.3Y-2.625
X5.3Y-2.725
X5.4Y-2.625
X5.4Y-2.725
X5.5Y-2.625
X5.5Y-2.725
X6.35Y-2.625
X6.35Y-2.725
X6.45Y-2.625
X6.45Y-2.725
X6.55Y-2.625
X6.55Y-2.725
X6.65Y-2.625
X6.65Y-2.725
X6.75Y-2.625
X6.75Y-2.725
T0
M30
