G04 (created by PCBNEW (22-Jun-2014 BZR 4027)-stable) date Fri 07 Jul 2017 01:08:53 AM CDT*
%MOIN*%
G04 Gerber Fmt 3.4, Leading zero omitted, Abs format*
%FSLAX34Y34*%
G01*
G70*
G90*
G04 APERTURE LIST*
%ADD10C,0.00590551*%
%ADD11C,0.006*%
%ADD12C,0.012*%
%ADD13C,0.01*%
%ADD14C,0.0001*%
%ADD15C,0.008*%
G04 APERTURE END LIST*
G54D10*
G54D11*
X55735Y-28671D02*
X55735Y-28914D01*
X55721Y-28942D01*
X55707Y-28957D01*
X55678Y-28971D01*
X55635Y-28971D01*
X55607Y-28957D01*
X55735Y-28857D02*
X55707Y-28871D01*
X55649Y-28871D01*
X55621Y-28857D01*
X55607Y-28842D01*
X55592Y-28814D01*
X55592Y-28728D01*
X55607Y-28700D01*
X55621Y-28685D01*
X55649Y-28671D01*
X55707Y-28671D01*
X55735Y-28685D01*
X55878Y-28871D02*
X55878Y-28671D01*
X55878Y-28571D02*
X55864Y-28585D01*
X55878Y-28600D01*
X55892Y-28585D01*
X55878Y-28571D01*
X55878Y-28600D01*
X55978Y-28671D02*
X56092Y-28671D01*
X56021Y-28571D02*
X56021Y-28828D01*
X56035Y-28857D01*
X56064Y-28871D01*
X56092Y-28871D01*
X56192Y-28871D02*
X56192Y-28571D01*
X56321Y-28871D02*
X56321Y-28714D01*
X56307Y-28685D01*
X56278Y-28671D01*
X56235Y-28671D01*
X56207Y-28685D01*
X56192Y-28700D01*
X56592Y-28671D02*
X56592Y-28871D01*
X56464Y-28671D02*
X56464Y-28828D01*
X56478Y-28857D01*
X56507Y-28871D01*
X56549Y-28871D01*
X56578Y-28857D01*
X56592Y-28842D01*
X56735Y-28871D02*
X56735Y-28571D01*
X56735Y-28685D02*
X56764Y-28671D01*
X56821Y-28671D01*
X56849Y-28685D01*
X56864Y-28700D01*
X56878Y-28728D01*
X56878Y-28814D01*
X56864Y-28842D01*
X56849Y-28857D01*
X56821Y-28871D01*
X56764Y-28871D01*
X56735Y-28857D01*
X57007Y-28842D02*
X57021Y-28857D01*
X57007Y-28871D01*
X56992Y-28857D01*
X57007Y-28842D01*
X57007Y-28871D01*
X57278Y-28857D02*
X57249Y-28871D01*
X57192Y-28871D01*
X57164Y-28857D01*
X57149Y-28842D01*
X57135Y-28814D01*
X57135Y-28728D01*
X57149Y-28700D01*
X57164Y-28685D01*
X57192Y-28671D01*
X57249Y-28671D01*
X57278Y-28685D01*
X57449Y-28871D02*
X57421Y-28857D01*
X57407Y-28842D01*
X57392Y-28814D01*
X57392Y-28728D01*
X57407Y-28700D01*
X57421Y-28685D01*
X57449Y-28671D01*
X57492Y-28671D01*
X57521Y-28685D01*
X57535Y-28700D01*
X57549Y-28728D01*
X57549Y-28814D01*
X57535Y-28842D01*
X57521Y-28857D01*
X57492Y-28871D01*
X57449Y-28871D01*
X57678Y-28871D02*
X57678Y-28671D01*
X57678Y-28700D02*
X57692Y-28685D01*
X57721Y-28671D01*
X57764Y-28671D01*
X57792Y-28685D01*
X57807Y-28714D01*
X57807Y-28871D01*
X57807Y-28714D02*
X57821Y-28685D01*
X57849Y-28671D01*
X57892Y-28671D01*
X57921Y-28685D01*
X57935Y-28714D01*
X57935Y-28871D01*
X58292Y-28557D02*
X58035Y-28942D01*
X58392Y-28671D02*
X58392Y-28971D01*
X58392Y-28685D02*
X58421Y-28671D01*
X58478Y-28671D01*
X58507Y-28685D01*
X58521Y-28700D01*
X58535Y-28728D01*
X58535Y-28814D01*
X58521Y-28842D01*
X58507Y-28857D01*
X58478Y-28871D01*
X58421Y-28871D01*
X58392Y-28857D01*
X58778Y-28857D02*
X58750Y-28871D01*
X58692Y-28871D01*
X58664Y-28857D01*
X58650Y-28828D01*
X58650Y-28714D01*
X58664Y-28685D01*
X58692Y-28671D01*
X58750Y-28671D01*
X58778Y-28685D01*
X58792Y-28714D01*
X58792Y-28742D01*
X58650Y-28771D01*
X58921Y-28671D02*
X58921Y-28971D01*
X58921Y-28685D02*
X58950Y-28671D01*
X59007Y-28671D01*
X59035Y-28685D01*
X59050Y-28700D01*
X59064Y-28728D01*
X59064Y-28814D01*
X59050Y-28842D01*
X59035Y-28857D01*
X59007Y-28871D01*
X58950Y-28871D01*
X58921Y-28857D01*
X59321Y-28871D02*
X59321Y-28714D01*
X59307Y-28685D01*
X59278Y-28671D01*
X59221Y-28671D01*
X59192Y-28685D01*
X59321Y-28857D02*
X59292Y-28871D01*
X59221Y-28871D01*
X59192Y-28857D01*
X59178Y-28828D01*
X59178Y-28800D01*
X59192Y-28771D01*
X59221Y-28757D01*
X59292Y-28757D01*
X59321Y-28742D01*
X59450Y-28857D02*
X59478Y-28871D01*
X59535Y-28871D01*
X59564Y-28857D01*
X59578Y-28828D01*
X59578Y-28814D01*
X59564Y-28785D01*
X59535Y-28771D01*
X59492Y-28771D01*
X59464Y-28757D01*
X59450Y-28728D01*
X59450Y-28714D01*
X59464Y-28685D01*
X59492Y-28671D01*
X59535Y-28671D01*
X59564Y-28685D01*
X59750Y-28871D02*
X59721Y-28857D01*
X59707Y-28828D01*
X59707Y-28571D01*
X59992Y-28871D02*
X59992Y-28714D01*
X59978Y-28685D01*
X59950Y-28671D01*
X59892Y-28671D01*
X59864Y-28685D01*
X59992Y-28857D02*
X59964Y-28871D01*
X59892Y-28871D01*
X59864Y-28857D01*
X59850Y-28828D01*
X59850Y-28800D01*
X59864Y-28771D01*
X59892Y-28757D01*
X59964Y-28757D01*
X59992Y-28742D01*
X60135Y-28871D02*
X60135Y-28571D01*
X60135Y-28685D02*
X60164Y-28671D01*
X60221Y-28671D01*
X60250Y-28685D01*
X60264Y-28700D01*
X60278Y-28728D01*
X60278Y-28814D01*
X60264Y-28842D01*
X60250Y-28857D01*
X60221Y-28871D01*
X60164Y-28871D01*
X60135Y-28857D01*
X60392Y-28857D02*
X60421Y-28871D01*
X60478Y-28871D01*
X60507Y-28857D01*
X60521Y-28828D01*
X60521Y-28814D01*
X60507Y-28785D01*
X60478Y-28771D01*
X60435Y-28771D01*
X60407Y-28757D01*
X60392Y-28728D01*
X60392Y-28714D01*
X60407Y-28685D01*
X60435Y-28671D01*
X60478Y-28671D01*
X60507Y-28685D01*
X60864Y-28557D02*
X60607Y-28942D01*
X61092Y-28671D02*
X61092Y-28914D01*
X61078Y-28942D01*
X61064Y-28957D01*
X61035Y-28971D01*
X60992Y-28971D01*
X60964Y-28957D01*
X61092Y-28857D02*
X61064Y-28871D01*
X61007Y-28871D01*
X60978Y-28857D01*
X60964Y-28842D01*
X60950Y-28814D01*
X60950Y-28728D01*
X60964Y-28700D01*
X60978Y-28685D01*
X61007Y-28671D01*
X61064Y-28671D01*
X61092Y-28685D01*
X61235Y-28671D02*
X61235Y-28971D01*
X61235Y-28685D02*
X61264Y-28671D01*
X61321Y-28671D01*
X61350Y-28685D01*
X61364Y-28700D01*
X61378Y-28728D01*
X61378Y-28814D01*
X61364Y-28842D01*
X61350Y-28857D01*
X61321Y-28871D01*
X61264Y-28871D01*
X61235Y-28857D01*
X61507Y-28871D02*
X61507Y-28671D01*
X61507Y-28571D02*
X61492Y-28585D01*
X61507Y-28600D01*
X61521Y-28585D01*
X61507Y-28571D01*
X61507Y-28600D01*
X61650Y-28871D02*
X61650Y-28571D01*
X61650Y-28685D02*
X61678Y-28671D01*
X61735Y-28671D01*
X61764Y-28685D01*
X61778Y-28700D01*
X61792Y-28728D01*
X61792Y-28814D01*
X61778Y-28842D01*
X61764Y-28857D01*
X61735Y-28871D01*
X61678Y-28871D01*
X61650Y-28857D01*
X61921Y-28757D02*
X62150Y-28757D01*
X62278Y-28857D02*
X62307Y-28871D01*
X62364Y-28871D01*
X62392Y-28857D01*
X62407Y-28828D01*
X62407Y-28814D01*
X62392Y-28785D01*
X62364Y-28771D01*
X62321Y-28771D01*
X62292Y-28757D01*
X62278Y-28728D01*
X62278Y-28714D01*
X62292Y-28685D01*
X62321Y-28671D01*
X62364Y-28671D01*
X62392Y-28685D01*
X62535Y-28671D02*
X62535Y-28971D01*
X62535Y-28685D02*
X62564Y-28671D01*
X62621Y-28671D01*
X62650Y-28685D01*
X62664Y-28700D01*
X62678Y-28728D01*
X62678Y-28814D01*
X62664Y-28842D01*
X62650Y-28857D01*
X62621Y-28871D01*
X62564Y-28871D01*
X62535Y-28857D01*
X62778Y-28671D02*
X62850Y-28871D01*
X62921Y-28671D02*
X62850Y-28871D01*
X62821Y-28942D01*
X62807Y-28957D01*
X62778Y-28971D01*
X58950Y-25985D02*
X58935Y-25971D01*
X58907Y-25928D01*
X58892Y-25900D01*
X58878Y-25857D01*
X58864Y-25785D01*
X58864Y-25728D01*
X58878Y-25657D01*
X58892Y-25614D01*
X58907Y-25585D01*
X58935Y-25542D01*
X58950Y-25528D01*
X59035Y-25671D02*
X59107Y-25871D01*
X59178Y-25671D01*
X59450Y-25871D02*
X59278Y-25871D01*
X59364Y-25871D02*
X59364Y-25571D01*
X59335Y-25614D01*
X59307Y-25642D01*
X59278Y-25657D01*
X59550Y-25985D02*
X59564Y-25971D01*
X59592Y-25928D01*
X59607Y-25900D01*
X59621Y-25857D01*
X59635Y-25785D01*
X59635Y-25728D01*
X59621Y-25657D01*
X59607Y-25614D01*
X59592Y-25585D01*
X59564Y-25542D01*
X59550Y-25528D01*
G54D12*
X57650Y-24421D02*
X57592Y-24392D01*
X57507Y-24392D01*
X57421Y-24421D01*
X57364Y-24478D01*
X57335Y-24535D01*
X57307Y-24650D01*
X57307Y-24735D01*
X57335Y-24850D01*
X57364Y-24907D01*
X57421Y-24964D01*
X57507Y-24992D01*
X57564Y-24992D01*
X57650Y-24964D01*
X57678Y-24935D01*
X57678Y-24735D01*
X57564Y-24735D01*
X57935Y-24992D02*
X57935Y-24392D01*
X58164Y-24392D01*
X58221Y-24421D01*
X58250Y-24450D01*
X58278Y-24507D01*
X58278Y-24592D01*
X58250Y-24650D01*
X58221Y-24678D01*
X58164Y-24707D01*
X57935Y-24707D01*
X58535Y-24992D02*
X58535Y-24392D01*
X59021Y-24678D02*
X59107Y-24707D01*
X59135Y-24735D01*
X59164Y-24792D01*
X59164Y-24878D01*
X59135Y-24935D01*
X59107Y-24964D01*
X59050Y-24992D01*
X58821Y-24992D01*
X58821Y-24392D01*
X59021Y-24392D01*
X59078Y-24421D01*
X59107Y-24450D01*
X59135Y-24507D01*
X59135Y-24564D01*
X59107Y-24621D01*
X59078Y-24650D01*
X59021Y-24678D01*
X58821Y-24678D01*
X59850Y-24964D02*
X59935Y-24992D01*
X60078Y-24992D01*
X60135Y-24964D01*
X60164Y-24935D01*
X60192Y-24878D01*
X60192Y-24821D01*
X60164Y-24764D01*
X60135Y-24735D01*
X60078Y-24707D01*
X59964Y-24678D01*
X59907Y-24650D01*
X59878Y-24621D01*
X59850Y-24564D01*
X59850Y-24507D01*
X59878Y-24450D01*
X59907Y-24421D01*
X59964Y-24392D01*
X60107Y-24392D01*
X60192Y-24421D01*
X60450Y-24592D02*
X60450Y-25192D01*
X60450Y-24621D02*
X60507Y-24592D01*
X60621Y-24592D01*
X60678Y-24621D01*
X60707Y-24650D01*
X60735Y-24707D01*
X60735Y-24878D01*
X60707Y-24935D01*
X60678Y-24964D01*
X60621Y-24992D01*
X60507Y-24992D01*
X60450Y-24964D01*
X60935Y-24592D02*
X61078Y-24992D01*
X61221Y-24592D02*
X61078Y-24992D01*
X61021Y-25135D01*
X60992Y-25164D01*
X60935Y-25192D01*
G54D13*
X65000Y-25750D02*
X63000Y-25750D01*
X68000Y-25750D02*
X66000Y-25750D01*
X68000Y-27750D02*
X63000Y-27750D01*
X63000Y-27750D02*
X63000Y-25750D01*
X68000Y-25750D02*
X68000Y-27750D01*
X52500Y-25750D02*
X50500Y-25750D01*
X55500Y-25750D02*
X53500Y-25750D01*
X55500Y-27750D02*
X50500Y-27750D01*
X50500Y-27750D02*
X50500Y-25750D01*
X55500Y-25750D02*
X55500Y-27750D01*
X70000Y-17000D02*
X70000Y-23000D01*
X70000Y-23000D02*
X48500Y-23000D01*
X48500Y-23000D02*
X48500Y-17000D01*
X70000Y-17000D02*
X48500Y-17000D01*
X48500Y-36500D02*
X48500Y-30500D01*
X48500Y-30500D02*
X70000Y-30500D01*
X70000Y-30500D02*
X70000Y-36500D01*
X48500Y-36500D02*
X70000Y-36500D01*
G54D14*
G36*
X58773Y-27957D02*
X58781Y-27953D01*
X58800Y-27941D01*
X58826Y-27924D01*
X58857Y-27903D01*
X58888Y-27882D01*
X58914Y-27865D01*
X58932Y-27853D01*
X58939Y-27849D01*
X58943Y-27850D01*
X58958Y-27858D01*
X58980Y-27869D01*
X58992Y-27875D01*
X59012Y-27884D01*
X59022Y-27886D01*
X59023Y-27883D01*
X59031Y-27868D01*
X59042Y-27842D01*
X59057Y-27808D01*
X59074Y-27768D01*
X59092Y-27725D01*
X59110Y-27681D01*
X59128Y-27639D01*
X59143Y-27601D01*
X59156Y-27571D01*
X59164Y-27549D01*
X59167Y-27540D01*
X59166Y-27538D01*
X59156Y-27529D01*
X59139Y-27516D01*
X59101Y-27485D01*
X59065Y-27439D01*
X59042Y-27387D01*
X59035Y-27329D01*
X59041Y-27276D01*
X59062Y-27225D01*
X59098Y-27178D01*
X59142Y-27144D01*
X59193Y-27122D01*
X59250Y-27115D01*
X59305Y-27121D01*
X59357Y-27142D01*
X59404Y-27177D01*
X59423Y-27200D01*
X59450Y-27247D01*
X59466Y-27297D01*
X59467Y-27309D01*
X59465Y-27365D01*
X59449Y-27418D01*
X59420Y-27465D01*
X59379Y-27504D01*
X59374Y-27508D01*
X59355Y-27522D01*
X59343Y-27531D01*
X59333Y-27539D01*
X59403Y-27709D01*
X59414Y-27736D01*
X59434Y-27782D01*
X59451Y-27822D01*
X59464Y-27854D01*
X59474Y-27875D01*
X59478Y-27884D01*
X59478Y-27884D01*
X59484Y-27885D01*
X59497Y-27880D01*
X59521Y-27869D01*
X59537Y-27861D01*
X59555Y-27852D01*
X59563Y-27849D01*
X59570Y-27853D01*
X59587Y-27864D01*
X59612Y-27881D01*
X59642Y-27901D01*
X59671Y-27921D01*
X59698Y-27939D01*
X59717Y-27951D01*
X59727Y-27956D01*
X59728Y-27956D01*
X59736Y-27951D01*
X59752Y-27939D01*
X59775Y-27917D01*
X59807Y-27885D01*
X59812Y-27880D01*
X59839Y-27852D01*
X59861Y-27829D01*
X59876Y-27813D01*
X59881Y-27806D01*
X59881Y-27806D01*
X59876Y-27796D01*
X59864Y-27777D01*
X59846Y-27750D01*
X59825Y-27719D01*
X59769Y-27637D01*
X59800Y-27560D01*
X59809Y-27537D01*
X59821Y-27508D01*
X59830Y-27488D01*
X59835Y-27479D01*
X59843Y-27476D01*
X59864Y-27471D01*
X59895Y-27464D01*
X59931Y-27458D01*
X59966Y-27451D01*
X59997Y-27445D01*
X60020Y-27441D01*
X60030Y-27439D01*
X60032Y-27437D01*
X60034Y-27432D01*
X60036Y-27422D01*
X60036Y-27403D01*
X60037Y-27373D01*
X60037Y-27329D01*
X60037Y-27325D01*
X60036Y-27283D01*
X60036Y-27250D01*
X60035Y-27229D01*
X60033Y-27221D01*
X60033Y-27221D01*
X60023Y-27218D01*
X60001Y-27214D01*
X59970Y-27207D01*
X59932Y-27200D01*
X59930Y-27200D01*
X59893Y-27193D01*
X59862Y-27186D01*
X59840Y-27181D01*
X59831Y-27178D01*
X59829Y-27176D01*
X59821Y-27161D01*
X59810Y-27138D01*
X59798Y-27110D01*
X59786Y-27081D01*
X59775Y-27054D01*
X59768Y-27035D01*
X59766Y-27026D01*
X59766Y-27026D01*
X59772Y-27017D01*
X59785Y-26997D01*
X59803Y-26971D01*
X59825Y-26939D01*
X59826Y-26936D01*
X59848Y-26905D01*
X59865Y-26878D01*
X59877Y-26859D01*
X59881Y-26851D01*
X59881Y-26850D01*
X59874Y-26841D01*
X59858Y-26823D01*
X59835Y-26799D01*
X59807Y-26771D01*
X59798Y-26763D01*
X59768Y-26733D01*
X59747Y-26713D01*
X59733Y-26703D01*
X59727Y-26700D01*
X59727Y-26701D01*
X59717Y-26706D01*
X59697Y-26719D01*
X59670Y-26738D01*
X59638Y-26759D01*
X59636Y-26761D01*
X59605Y-26782D01*
X59579Y-26800D01*
X59560Y-26812D01*
X59552Y-26817D01*
X59550Y-26817D01*
X59538Y-26813D01*
X59515Y-26806D01*
X59488Y-26795D01*
X59459Y-26783D01*
X59432Y-26772D01*
X59412Y-26763D01*
X59403Y-26758D01*
X59403Y-26757D01*
X59399Y-26746D01*
X59394Y-26722D01*
X59387Y-26690D01*
X59380Y-26651D01*
X59379Y-26645D01*
X59372Y-26608D01*
X59366Y-26577D01*
X59361Y-26555D01*
X59359Y-26546D01*
X59354Y-26545D01*
X59335Y-26544D01*
X59307Y-26543D01*
X59273Y-26543D01*
X59238Y-26543D01*
X59204Y-26544D01*
X59174Y-26545D01*
X59153Y-26546D01*
X59144Y-26548D01*
X59143Y-26549D01*
X59140Y-26560D01*
X59135Y-26584D01*
X59128Y-26616D01*
X59121Y-26655D01*
X59120Y-26662D01*
X59113Y-26699D01*
X59106Y-26730D01*
X59102Y-26751D01*
X59099Y-26759D01*
X59096Y-26761D01*
X59081Y-26768D01*
X59056Y-26778D01*
X59024Y-26791D01*
X58952Y-26820D01*
X58864Y-26759D01*
X58856Y-26754D01*
X58824Y-26732D01*
X58798Y-26715D01*
X58780Y-26703D01*
X58772Y-26699D01*
X58772Y-26699D01*
X58763Y-26707D01*
X58745Y-26723D01*
X58721Y-26747D01*
X58694Y-26774D01*
X58673Y-26795D01*
X58649Y-26820D01*
X58633Y-26836D01*
X58625Y-26847D01*
X58622Y-26854D01*
X58623Y-26858D01*
X58628Y-26867D01*
X58641Y-26886D01*
X58659Y-26913D01*
X58681Y-26944D01*
X58699Y-26971D01*
X58718Y-27000D01*
X58730Y-27021D01*
X58735Y-27032D01*
X58734Y-27036D01*
X58727Y-27053D01*
X58717Y-27080D01*
X58704Y-27111D01*
X58673Y-27181D01*
X58627Y-27189D01*
X58599Y-27195D01*
X58560Y-27202D01*
X58523Y-27209D01*
X58465Y-27221D01*
X58463Y-27433D01*
X58472Y-27437D01*
X58481Y-27440D01*
X58502Y-27444D01*
X58533Y-27450D01*
X58569Y-27457D01*
X58600Y-27463D01*
X58631Y-27469D01*
X58653Y-27473D01*
X58663Y-27475D01*
X58666Y-27479D01*
X58674Y-27494D01*
X58685Y-27518D01*
X58697Y-27547D01*
X58709Y-27576D01*
X58720Y-27604D01*
X58728Y-27625D01*
X58731Y-27636D01*
X58727Y-27644D01*
X58715Y-27662D01*
X58698Y-27688D01*
X58677Y-27719D01*
X58655Y-27750D01*
X58638Y-27777D01*
X58625Y-27796D01*
X58620Y-27804D01*
X58623Y-27810D01*
X58635Y-27825D01*
X58658Y-27849D01*
X58693Y-27884D01*
X58699Y-27889D01*
X58726Y-27916D01*
X58750Y-27937D01*
X58766Y-27952D01*
X58773Y-27957D01*
X58773Y-27957D01*
G37*
G54D11*
X65278Y-28371D02*
X65278Y-28071D01*
X65392Y-28071D01*
X65421Y-28085D01*
X65435Y-28100D01*
X65450Y-28128D01*
X65450Y-28171D01*
X65435Y-28200D01*
X65421Y-28214D01*
X65392Y-28228D01*
X65278Y-28228D01*
X65564Y-28100D02*
X65578Y-28085D01*
X65607Y-28071D01*
X65678Y-28071D01*
X65707Y-28085D01*
X65721Y-28100D01*
X65735Y-28128D01*
X65735Y-28157D01*
X65721Y-28200D01*
X65550Y-28371D01*
X65735Y-28371D01*
X64307Y-25371D02*
X64307Y-25071D01*
X64378Y-25071D01*
X64421Y-25085D01*
X64450Y-25114D01*
X64464Y-25142D01*
X64478Y-25200D01*
X64478Y-25242D01*
X64464Y-25300D01*
X64450Y-25328D01*
X64421Y-25357D01*
X64378Y-25371D01*
X64307Y-25371D01*
X64592Y-25285D02*
X64735Y-25285D01*
X64564Y-25371D02*
X64664Y-25071D01*
X64764Y-25371D01*
X64821Y-25071D02*
X64992Y-25071D01*
X64907Y-25371D02*
X64907Y-25071D01*
X65078Y-25285D02*
X65221Y-25285D01*
X65050Y-25371D02*
X65150Y-25071D01*
X65250Y-25371D01*
X65721Y-25371D02*
X65578Y-25371D01*
X65578Y-25071D01*
X65821Y-25371D02*
X65821Y-25071D01*
X65964Y-25371D02*
X65964Y-25071D01*
X66135Y-25371D01*
X66135Y-25071D01*
X66278Y-25214D02*
X66378Y-25214D01*
X66421Y-25371D02*
X66278Y-25371D01*
X66278Y-25071D01*
X66421Y-25071D01*
X66535Y-25357D02*
X66578Y-25371D01*
X66650Y-25371D01*
X66678Y-25357D01*
X66692Y-25342D01*
X66707Y-25314D01*
X66707Y-25285D01*
X66692Y-25257D01*
X66678Y-25242D01*
X66650Y-25228D01*
X66592Y-25214D01*
X66564Y-25200D01*
X66550Y-25185D01*
X66535Y-25157D01*
X66535Y-25128D01*
X66550Y-25100D01*
X66564Y-25085D01*
X66592Y-25071D01*
X66664Y-25071D01*
X66707Y-25085D01*
X52778Y-28371D02*
X52778Y-28071D01*
X52892Y-28071D01*
X52921Y-28085D01*
X52935Y-28100D01*
X52950Y-28128D01*
X52950Y-28171D01*
X52935Y-28200D01*
X52921Y-28214D01*
X52892Y-28228D01*
X52778Y-28228D01*
X53050Y-28071D02*
X53235Y-28071D01*
X53135Y-28185D01*
X53178Y-28185D01*
X53207Y-28200D01*
X53221Y-28214D01*
X53235Y-28242D01*
X53235Y-28314D01*
X53221Y-28342D01*
X53207Y-28357D01*
X53178Y-28371D01*
X53092Y-28371D01*
X53064Y-28357D01*
X53050Y-28342D01*
X51492Y-25342D02*
X51478Y-25357D01*
X51435Y-25371D01*
X51407Y-25371D01*
X51364Y-25357D01*
X51335Y-25328D01*
X51321Y-25300D01*
X51307Y-25242D01*
X51307Y-25200D01*
X51321Y-25142D01*
X51335Y-25114D01*
X51364Y-25085D01*
X51407Y-25071D01*
X51435Y-25071D01*
X51478Y-25085D01*
X51492Y-25100D01*
X51678Y-25071D02*
X51735Y-25071D01*
X51764Y-25085D01*
X51792Y-25114D01*
X51807Y-25171D01*
X51807Y-25271D01*
X51792Y-25328D01*
X51764Y-25357D01*
X51735Y-25371D01*
X51678Y-25371D01*
X51650Y-25357D01*
X51621Y-25328D01*
X51607Y-25271D01*
X51607Y-25171D01*
X51621Y-25114D01*
X51650Y-25085D01*
X51678Y-25071D01*
X51935Y-25371D02*
X51935Y-25071D01*
X52107Y-25371D01*
X52107Y-25071D01*
X52207Y-25071D02*
X52378Y-25071D01*
X52292Y-25371D02*
X52292Y-25071D01*
X52650Y-25371D02*
X52550Y-25228D01*
X52478Y-25371D02*
X52478Y-25071D01*
X52592Y-25071D01*
X52621Y-25085D01*
X52635Y-25100D01*
X52650Y-25128D01*
X52650Y-25171D01*
X52635Y-25200D01*
X52621Y-25214D01*
X52592Y-25228D01*
X52478Y-25228D01*
X52835Y-25071D02*
X52892Y-25071D01*
X52921Y-25085D01*
X52950Y-25114D01*
X52964Y-25171D01*
X52964Y-25271D01*
X52950Y-25328D01*
X52921Y-25357D01*
X52892Y-25371D01*
X52835Y-25371D01*
X52807Y-25357D01*
X52778Y-25328D01*
X52764Y-25271D01*
X52764Y-25171D01*
X52778Y-25114D01*
X52807Y-25085D01*
X52835Y-25071D01*
X53235Y-25371D02*
X53092Y-25371D01*
X53092Y-25071D01*
X53707Y-25371D02*
X53564Y-25371D01*
X53564Y-25071D01*
X53807Y-25371D02*
X53807Y-25071D01*
X53950Y-25371D02*
X53950Y-25071D01*
X54121Y-25371D01*
X54121Y-25071D01*
X54264Y-25214D02*
X54364Y-25214D01*
X54407Y-25371D02*
X54264Y-25371D01*
X54264Y-25071D01*
X54407Y-25071D01*
X54521Y-25357D02*
X54564Y-25371D01*
X54635Y-25371D01*
X54664Y-25357D01*
X54678Y-25342D01*
X54692Y-25314D01*
X54692Y-25285D01*
X54678Y-25257D01*
X54664Y-25242D01*
X54635Y-25228D01*
X54578Y-25214D01*
X54550Y-25200D01*
X54535Y-25185D01*
X54521Y-25157D01*
X54521Y-25128D01*
X54535Y-25100D01*
X54550Y-25085D01*
X54578Y-25071D01*
X54650Y-25071D01*
X54692Y-25085D01*
G54D15*
X67454Y-17661D02*
X67454Y-17261D01*
X67607Y-17261D01*
X67645Y-17280D01*
X67664Y-17300D01*
X67683Y-17338D01*
X67683Y-17395D01*
X67664Y-17433D01*
X67645Y-17452D01*
X67607Y-17471D01*
X67454Y-17471D01*
X68064Y-17661D02*
X67835Y-17661D01*
X67950Y-17661D02*
X67950Y-17261D01*
X67911Y-17319D01*
X67873Y-17357D01*
X67835Y-17376D01*
G54D10*
X57984Y-18284D02*
X57947Y-18265D01*
X57890Y-18265D01*
X57834Y-18284D01*
X57797Y-18321D01*
X57778Y-18359D01*
X57759Y-18434D01*
X57759Y-18490D01*
X57778Y-18565D01*
X57797Y-18603D01*
X57834Y-18640D01*
X57890Y-18659D01*
X57928Y-18659D01*
X57984Y-18640D01*
X58003Y-18621D01*
X58003Y-18490D01*
X57928Y-18490D01*
X58172Y-18659D02*
X58172Y-18265D01*
X58321Y-18265D01*
X58359Y-18284D01*
X58378Y-18303D01*
X58396Y-18340D01*
X58396Y-18396D01*
X58378Y-18434D01*
X58359Y-18453D01*
X58321Y-18471D01*
X58172Y-18471D01*
X58565Y-18659D02*
X58565Y-18265D01*
X58884Y-18453D02*
X58940Y-18471D01*
X58959Y-18490D01*
X58978Y-18528D01*
X58978Y-18584D01*
X58959Y-18621D01*
X58940Y-18640D01*
X58903Y-18659D01*
X58753Y-18659D01*
X58753Y-18265D01*
X58884Y-18265D01*
X58921Y-18284D01*
X58940Y-18303D01*
X58959Y-18340D01*
X58959Y-18378D01*
X58940Y-18415D01*
X58921Y-18434D01*
X58884Y-18453D01*
X58753Y-18453D01*
X59446Y-18659D02*
X59446Y-18265D01*
X59578Y-18546D01*
X59709Y-18265D01*
X59709Y-18659D01*
X59878Y-18546D02*
X60065Y-18546D01*
X59840Y-18659D02*
X59971Y-18265D01*
X60103Y-18659D01*
X60421Y-18659D02*
X60234Y-18659D01*
X60234Y-18265D01*
X60552Y-18453D02*
X60684Y-18453D01*
X60740Y-18659D02*
X60552Y-18659D01*
X60552Y-18265D01*
X60740Y-18265D01*
G54D15*
X54173Y-19411D02*
X54173Y-19011D01*
X54402Y-19411D01*
X54402Y-19011D01*
X54650Y-19411D02*
X54611Y-19392D01*
X54592Y-19373D01*
X54573Y-19335D01*
X54573Y-19221D01*
X54592Y-19183D01*
X54611Y-19164D01*
X54650Y-19145D01*
X54707Y-19145D01*
X54745Y-19164D01*
X54764Y-19183D01*
X54783Y-19221D01*
X54783Y-19335D01*
X54764Y-19373D01*
X54745Y-19392D01*
X54707Y-19411D01*
X54650Y-19411D01*
X54954Y-19411D02*
X54954Y-19145D01*
X54954Y-19221D02*
X54973Y-19183D01*
X54992Y-19164D01*
X55030Y-19145D01*
X55069Y-19145D01*
X55430Y-19373D02*
X55411Y-19392D01*
X55354Y-19411D01*
X55316Y-19411D01*
X55259Y-19392D01*
X55221Y-19354D01*
X55202Y-19316D01*
X55183Y-19240D01*
X55183Y-19183D01*
X55202Y-19107D01*
X55221Y-19069D01*
X55259Y-19030D01*
X55316Y-19011D01*
X55354Y-19011D01*
X55411Y-19030D01*
X55430Y-19050D01*
X55659Y-19411D02*
X55621Y-19392D01*
X55602Y-19373D01*
X55583Y-19335D01*
X55583Y-19221D01*
X55602Y-19183D01*
X55621Y-19164D01*
X55659Y-19145D01*
X55716Y-19145D01*
X55754Y-19164D01*
X55773Y-19183D01*
X55792Y-19221D01*
X55792Y-19335D01*
X55773Y-19373D01*
X55754Y-19392D01*
X55716Y-19411D01*
X55659Y-19411D01*
X55964Y-19411D02*
X55964Y-19145D01*
X55964Y-19183D02*
X55983Y-19164D01*
X56021Y-19145D01*
X56078Y-19145D01*
X56116Y-19164D01*
X56135Y-19202D01*
X56135Y-19411D01*
X56135Y-19202D02*
X56154Y-19164D01*
X56192Y-19145D01*
X56250Y-19145D01*
X56288Y-19164D01*
X56307Y-19202D01*
X56307Y-19411D01*
X56497Y-19145D02*
X56497Y-19545D01*
X56497Y-19164D02*
X56535Y-19145D01*
X56611Y-19145D01*
X56650Y-19164D01*
X56669Y-19183D01*
X56688Y-19221D01*
X56688Y-19335D01*
X56669Y-19373D01*
X56650Y-19392D01*
X56611Y-19411D01*
X56535Y-19411D01*
X56497Y-19392D01*
X57164Y-19411D02*
X57164Y-19011D01*
X57354Y-19145D02*
X57354Y-19411D01*
X57354Y-19183D02*
X57373Y-19164D01*
X57411Y-19145D01*
X57469Y-19145D01*
X57507Y-19164D01*
X57526Y-19202D01*
X57526Y-19411D01*
X57888Y-19392D02*
X57850Y-19411D01*
X57773Y-19411D01*
X57735Y-19392D01*
X57716Y-19373D01*
X57697Y-19335D01*
X57697Y-19221D01*
X57716Y-19183D01*
X57735Y-19164D01*
X57773Y-19145D01*
X57850Y-19145D01*
X57888Y-19164D01*
X58059Y-19373D02*
X58078Y-19392D01*
X58059Y-19411D01*
X58040Y-19392D01*
X58059Y-19373D01*
X58059Y-19411D01*
X58764Y-19411D02*
X58535Y-19411D01*
X58650Y-19411D02*
X58650Y-19011D01*
X58611Y-19069D01*
X58573Y-19107D01*
X58535Y-19126D01*
X59145Y-19411D02*
X58916Y-19411D01*
X59030Y-19411D02*
X59030Y-19011D01*
X58992Y-19069D01*
X58954Y-19107D01*
X58916Y-19126D01*
X59297Y-19050D02*
X59316Y-19030D01*
X59354Y-19011D01*
X59450Y-19011D01*
X59488Y-19030D01*
X59507Y-19050D01*
X59526Y-19088D01*
X59526Y-19126D01*
X59507Y-19183D01*
X59278Y-19411D01*
X59526Y-19411D01*
X59697Y-19259D02*
X60002Y-19259D01*
X60269Y-19011D02*
X60307Y-19011D01*
X60345Y-19030D01*
X60364Y-19050D01*
X60383Y-19088D01*
X60402Y-19164D01*
X60402Y-19259D01*
X60383Y-19335D01*
X60364Y-19373D01*
X60345Y-19392D01*
X60307Y-19411D01*
X60269Y-19411D01*
X60230Y-19392D01*
X60211Y-19373D01*
X60192Y-19335D01*
X60173Y-19259D01*
X60173Y-19164D01*
X60192Y-19088D01*
X60211Y-19050D01*
X60230Y-19030D01*
X60269Y-19011D01*
X60554Y-19050D02*
X60573Y-19030D01*
X60611Y-19011D01*
X60707Y-19011D01*
X60745Y-19030D01*
X60764Y-19050D01*
X60783Y-19088D01*
X60783Y-19126D01*
X60764Y-19183D01*
X60535Y-19411D01*
X60783Y-19411D01*
X61126Y-19145D02*
X61126Y-19411D01*
X61030Y-18992D02*
X60935Y-19278D01*
X61183Y-19278D01*
X61335Y-19259D02*
X61640Y-19259D01*
X62040Y-19411D02*
X61811Y-19411D01*
X61926Y-19411D02*
X61926Y-19011D01*
X61888Y-19069D01*
X61850Y-19107D01*
X61811Y-19126D01*
X62421Y-19411D02*
X62192Y-19411D01*
X62307Y-19411D02*
X62307Y-19011D01*
X62269Y-19069D01*
X62230Y-19107D01*
X62192Y-19126D01*
X62554Y-19011D02*
X62802Y-19011D01*
X62669Y-19164D01*
X62726Y-19164D01*
X62764Y-19183D01*
X62783Y-19202D01*
X62802Y-19240D01*
X62802Y-19335D01*
X62783Y-19373D01*
X62764Y-19392D01*
X62726Y-19411D01*
X62611Y-19411D01*
X62573Y-19392D01*
X62554Y-19373D01*
X63202Y-19411D02*
X63069Y-19221D01*
X62973Y-19411D02*
X62973Y-19011D01*
X63126Y-19011D01*
X63164Y-19030D01*
X63183Y-19050D01*
X63202Y-19088D01*
X63202Y-19145D01*
X63183Y-19183D01*
X63164Y-19202D01*
X63126Y-19221D01*
X62973Y-19221D01*
X63450Y-19011D02*
X63488Y-19011D01*
X63526Y-19030D01*
X63545Y-19050D01*
X63564Y-19088D01*
X63583Y-19164D01*
X63583Y-19259D01*
X63564Y-19335D01*
X63545Y-19373D01*
X63526Y-19392D01*
X63488Y-19411D01*
X63450Y-19411D01*
X63411Y-19392D01*
X63392Y-19373D01*
X63373Y-19335D01*
X63354Y-19259D01*
X63354Y-19164D01*
X63373Y-19088D01*
X63392Y-19050D01*
X63411Y-19030D01*
X63450Y-19011D01*
X63830Y-19011D02*
X63869Y-19011D01*
X63907Y-19030D01*
X63926Y-19050D01*
X63945Y-19088D01*
X63964Y-19164D01*
X63964Y-19259D01*
X63945Y-19335D01*
X63926Y-19373D01*
X63907Y-19392D01*
X63869Y-19411D01*
X63830Y-19411D01*
X63792Y-19392D01*
X63773Y-19373D01*
X63754Y-19335D01*
X63735Y-19259D01*
X63735Y-19164D01*
X63754Y-19088D01*
X63773Y-19050D01*
X63792Y-19030D01*
X63830Y-19011D01*
X64345Y-19411D02*
X64116Y-19411D01*
X64230Y-19411D02*
X64230Y-19011D01*
X64192Y-19069D01*
X64154Y-19107D01*
X64116Y-19126D01*
X50454Y-36161D02*
X50454Y-35761D01*
X50607Y-35761D01*
X50645Y-35780D01*
X50664Y-35800D01*
X50683Y-35838D01*
X50683Y-35895D01*
X50664Y-35933D01*
X50645Y-35952D01*
X50607Y-35971D01*
X50454Y-35971D01*
X51026Y-35895D02*
X51026Y-36161D01*
X50930Y-35742D02*
X50835Y-36028D01*
X51083Y-36028D01*
G54D10*
X57637Y-34784D02*
X57600Y-34765D01*
X57543Y-34765D01*
X57487Y-34784D01*
X57450Y-34821D01*
X57431Y-34859D01*
X57412Y-34934D01*
X57412Y-34990D01*
X57431Y-35065D01*
X57450Y-35103D01*
X57487Y-35140D01*
X57543Y-35159D01*
X57581Y-35159D01*
X57637Y-35140D01*
X57656Y-35121D01*
X57656Y-34990D01*
X57581Y-34990D01*
X57825Y-35159D02*
X57825Y-34765D01*
X57975Y-34765D01*
X58012Y-34784D01*
X58031Y-34803D01*
X58050Y-34840D01*
X58050Y-34896D01*
X58031Y-34934D01*
X58012Y-34953D01*
X57975Y-34971D01*
X57825Y-34971D01*
X58218Y-35159D02*
X58218Y-34765D01*
X58537Y-34953D02*
X58593Y-34971D01*
X58612Y-34990D01*
X58631Y-35028D01*
X58631Y-35084D01*
X58612Y-35121D01*
X58593Y-35140D01*
X58556Y-35159D01*
X58406Y-35159D01*
X58406Y-34765D01*
X58537Y-34765D01*
X58575Y-34784D01*
X58593Y-34803D01*
X58612Y-34840D01*
X58612Y-34878D01*
X58593Y-34915D01*
X58575Y-34934D01*
X58537Y-34953D01*
X58406Y-34953D01*
X59231Y-34953D02*
X59100Y-34953D01*
X59100Y-35159D02*
X59100Y-34765D01*
X59287Y-34765D01*
X59437Y-34953D02*
X59568Y-34953D01*
X59624Y-35159D02*
X59437Y-35159D01*
X59437Y-34765D01*
X59624Y-34765D01*
X59793Y-35159D02*
X59793Y-34765D01*
X59924Y-35046D01*
X60056Y-34765D01*
X60056Y-35159D01*
X60224Y-35046D02*
X60412Y-35046D01*
X60187Y-35159D02*
X60318Y-34765D01*
X60449Y-35159D01*
X60768Y-35159D02*
X60581Y-35159D01*
X60581Y-34765D01*
X60899Y-34953D02*
X61031Y-34953D01*
X61087Y-35159D02*
X60899Y-35159D01*
X60899Y-34765D01*
X61087Y-34765D01*
G54D15*
X54173Y-34411D02*
X54173Y-34011D01*
X54402Y-34411D01*
X54402Y-34011D01*
X54650Y-34411D02*
X54611Y-34392D01*
X54592Y-34373D01*
X54573Y-34335D01*
X54573Y-34221D01*
X54592Y-34183D01*
X54611Y-34164D01*
X54650Y-34145D01*
X54707Y-34145D01*
X54745Y-34164D01*
X54764Y-34183D01*
X54783Y-34221D01*
X54783Y-34335D01*
X54764Y-34373D01*
X54745Y-34392D01*
X54707Y-34411D01*
X54650Y-34411D01*
X54954Y-34411D02*
X54954Y-34145D01*
X54954Y-34221D02*
X54973Y-34183D01*
X54992Y-34164D01*
X55030Y-34145D01*
X55069Y-34145D01*
X55430Y-34373D02*
X55411Y-34392D01*
X55354Y-34411D01*
X55316Y-34411D01*
X55259Y-34392D01*
X55221Y-34354D01*
X55202Y-34316D01*
X55183Y-34240D01*
X55183Y-34183D01*
X55202Y-34107D01*
X55221Y-34069D01*
X55259Y-34030D01*
X55316Y-34011D01*
X55354Y-34011D01*
X55411Y-34030D01*
X55430Y-34050D01*
X55659Y-34411D02*
X55621Y-34392D01*
X55602Y-34373D01*
X55583Y-34335D01*
X55583Y-34221D01*
X55602Y-34183D01*
X55621Y-34164D01*
X55659Y-34145D01*
X55716Y-34145D01*
X55754Y-34164D01*
X55773Y-34183D01*
X55792Y-34221D01*
X55792Y-34335D01*
X55773Y-34373D01*
X55754Y-34392D01*
X55716Y-34411D01*
X55659Y-34411D01*
X55964Y-34411D02*
X55964Y-34145D01*
X55964Y-34183D02*
X55983Y-34164D01*
X56021Y-34145D01*
X56078Y-34145D01*
X56116Y-34164D01*
X56135Y-34202D01*
X56135Y-34411D01*
X56135Y-34202D02*
X56154Y-34164D01*
X56192Y-34145D01*
X56250Y-34145D01*
X56288Y-34164D01*
X56307Y-34202D01*
X56307Y-34411D01*
X56497Y-34145D02*
X56497Y-34545D01*
X56497Y-34164D02*
X56535Y-34145D01*
X56611Y-34145D01*
X56650Y-34164D01*
X56669Y-34183D01*
X56688Y-34221D01*
X56688Y-34335D01*
X56669Y-34373D01*
X56650Y-34392D01*
X56611Y-34411D01*
X56535Y-34411D01*
X56497Y-34392D01*
X57164Y-34411D02*
X57164Y-34011D01*
X57354Y-34145D02*
X57354Y-34411D01*
X57354Y-34183D02*
X57373Y-34164D01*
X57411Y-34145D01*
X57469Y-34145D01*
X57507Y-34164D01*
X57526Y-34202D01*
X57526Y-34411D01*
X57888Y-34392D02*
X57850Y-34411D01*
X57773Y-34411D01*
X57735Y-34392D01*
X57716Y-34373D01*
X57697Y-34335D01*
X57697Y-34221D01*
X57716Y-34183D01*
X57735Y-34164D01*
X57773Y-34145D01*
X57850Y-34145D01*
X57888Y-34164D01*
X58059Y-34373D02*
X58078Y-34392D01*
X58059Y-34411D01*
X58040Y-34392D01*
X58059Y-34373D01*
X58059Y-34411D01*
X58764Y-34411D02*
X58535Y-34411D01*
X58650Y-34411D02*
X58650Y-34011D01*
X58611Y-34069D01*
X58573Y-34107D01*
X58535Y-34126D01*
X59145Y-34411D02*
X58916Y-34411D01*
X59030Y-34411D02*
X59030Y-34011D01*
X58992Y-34069D01*
X58954Y-34107D01*
X58916Y-34126D01*
X59297Y-34050D02*
X59316Y-34030D01*
X59354Y-34011D01*
X59450Y-34011D01*
X59488Y-34030D01*
X59507Y-34050D01*
X59526Y-34088D01*
X59526Y-34126D01*
X59507Y-34183D01*
X59278Y-34411D01*
X59526Y-34411D01*
X59697Y-34259D02*
X60002Y-34259D01*
X60269Y-34011D02*
X60307Y-34011D01*
X60345Y-34030D01*
X60364Y-34050D01*
X60383Y-34088D01*
X60402Y-34164D01*
X60402Y-34259D01*
X60383Y-34335D01*
X60364Y-34373D01*
X60345Y-34392D01*
X60307Y-34411D01*
X60269Y-34411D01*
X60230Y-34392D01*
X60211Y-34373D01*
X60192Y-34335D01*
X60173Y-34259D01*
X60173Y-34164D01*
X60192Y-34088D01*
X60211Y-34050D01*
X60230Y-34030D01*
X60269Y-34011D01*
X60554Y-34050D02*
X60573Y-34030D01*
X60611Y-34011D01*
X60707Y-34011D01*
X60745Y-34030D01*
X60764Y-34050D01*
X60783Y-34088D01*
X60783Y-34126D01*
X60764Y-34183D01*
X60535Y-34411D01*
X60783Y-34411D01*
X61126Y-34145D02*
X61126Y-34411D01*
X61030Y-33992D02*
X60935Y-34278D01*
X61183Y-34278D01*
X61335Y-34259D02*
X61640Y-34259D01*
X61811Y-34050D02*
X61830Y-34030D01*
X61869Y-34011D01*
X61964Y-34011D01*
X62002Y-34030D01*
X62021Y-34050D01*
X62040Y-34088D01*
X62040Y-34126D01*
X62021Y-34183D01*
X61792Y-34411D01*
X62040Y-34411D01*
X62421Y-34411D02*
X62192Y-34411D01*
X62307Y-34411D02*
X62307Y-34011D01*
X62269Y-34069D01*
X62230Y-34107D01*
X62192Y-34126D01*
X62554Y-34011D02*
X62802Y-34011D01*
X62669Y-34164D01*
X62726Y-34164D01*
X62764Y-34183D01*
X62783Y-34202D01*
X62802Y-34240D01*
X62802Y-34335D01*
X62783Y-34373D01*
X62764Y-34392D01*
X62726Y-34411D01*
X62611Y-34411D01*
X62573Y-34392D01*
X62554Y-34373D01*
X63202Y-34411D02*
X63069Y-34221D01*
X62973Y-34411D02*
X62973Y-34011D01*
X63126Y-34011D01*
X63164Y-34030D01*
X63183Y-34050D01*
X63202Y-34088D01*
X63202Y-34145D01*
X63183Y-34183D01*
X63164Y-34202D01*
X63126Y-34221D01*
X62973Y-34221D01*
X63450Y-34011D02*
X63488Y-34011D01*
X63526Y-34030D01*
X63545Y-34050D01*
X63564Y-34088D01*
X63583Y-34164D01*
X63583Y-34259D01*
X63564Y-34335D01*
X63545Y-34373D01*
X63526Y-34392D01*
X63488Y-34411D01*
X63450Y-34411D01*
X63411Y-34392D01*
X63392Y-34373D01*
X63373Y-34335D01*
X63354Y-34259D01*
X63354Y-34164D01*
X63373Y-34088D01*
X63392Y-34050D01*
X63411Y-34030D01*
X63450Y-34011D01*
X63830Y-34011D02*
X63869Y-34011D01*
X63907Y-34030D01*
X63926Y-34050D01*
X63945Y-34088D01*
X63964Y-34164D01*
X63964Y-34259D01*
X63945Y-34335D01*
X63926Y-34373D01*
X63907Y-34392D01*
X63869Y-34411D01*
X63830Y-34411D01*
X63792Y-34392D01*
X63773Y-34373D01*
X63754Y-34335D01*
X63735Y-34259D01*
X63735Y-34164D01*
X63754Y-34088D01*
X63773Y-34050D01*
X63792Y-34030D01*
X63830Y-34011D01*
X64345Y-34411D02*
X64116Y-34411D01*
X64230Y-34411D02*
X64230Y-34011D01*
X64192Y-34069D01*
X64154Y-34107D01*
X64116Y-34126D01*
M02*
