G04 (created by PCBNEW (22-Jun-2014 BZR 4027)-stable) date Fri 07 Jul 2017 01:08:53 AM CDT*
%MOIN*%
G04 Gerber Fmt 3.4, Leading zero omitted, Abs format*
%FSLAX34Y34*%
G01*
G70*
G90*
G04 APERTURE LIST*
%ADD10C,0.00590551*%
%ADD11C,0.00393701*%
G04 APERTURE END LIST*
G54D10*
G54D11*
X68500Y-33000D02*
X69000Y-33000D01*
X68500Y-31500D02*
X69000Y-31500D01*
X67750Y-32250D02*
G75*
G03X68500Y-33000I750J0D01*
G74*
G01*
X68500Y-31500D02*
G75*
G03X67750Y-32250I0J-750D01*
G74*
G01*
X49500Y-22000D02*
X50000Y-22000D01*
X50000Y-20500D02*
X49500Y-20500D01*
X50000Y-31500D02*
X49500Y-31500D01*
X50000Y-33000D02*
X49500Y-33000D01*
X50000Y-33000D02*
G75*
G03X50750Y-32250I0J750D01*
G74*
G01*
X50750Y-32250D02*
G75*
G03X50000Y-31500I-750J0D01*
G74*
G01*
X50000Y-22000D02*
G75*
G03X50750Y-21250I0J750D01*
G74*
G01*
X50750Y-21250D02*
G75*
G03X50000Y-20500I-750J0D01*
G74*
G01*
X49500Y-20500D02*
X49500Y-17000D01*
X49500Y-31500D02*
X49500Y-22000D01*
X49500Y-36500D02*
X49500Y-33000D01*
X69000Y-33000D02*
X69000Y-36500D01*
X69000Y-22000D02*
X69000Y-31500D01*
X69000Y-20500D02*
X69000Y-17000D01*
X68500Y-22000D02*
X69000Y-22000D01*
X68500Y-20500D02*
X69000Y-20500D01*
X67750Y-21250D02*
G75*
G03X68500Y-22000I750J0D01*
G74*
G01*
X68500Y-20500D02*
G75*
G03X67750Y-21250I0J-750D01*
G74*
G01*
X69000Y-36500D02*
X49500Y-36500D01*
X49500Y-17000D02*
X69000Y-17000D01*
M02*
